<svg xmlns="http://www.w3.org/2000/svg" xmlns:xlink="http://www.w3.org/1999/xlink" width="360.166" height="360.939" viewBox="0 0 360.166 360.939">
  <defs>
    <clipPath id="clip-path">
      <rect width="360.166" height="360.939" fill="none"/>
    </clipPath>
  </defs>
  <g id="Bildlaufgruppe_2" data-name="Bildlaufgruppe 2" clip-path="url(#clip-path)" style="isolation: isolate">
    <path id="Pfad_8" data-name="Pfad 8" d="M843.512,712.891A76.242,76.242,0,0,0,854.342,605.6c-.883-1.067-1.779-2.12-2.719-3.145-33.127-35.232-68.23-68.629-102.452-102.879-5.251-5.265-10.2-10.814-14.044-14.9a738.035,738.035,0,0,0-54.954,52.65A76.179,76.179,0,0,0,689.891,644.4l33.24-32.828c-17.944-24.19-15.212-41.493,10.131-59.009q42.005,41.579,84.082,83.328a17.307,17.307,0,0,1,2.69,5.279,32.7,32.7,0,0,1-9.335,38.562Zm334.493,42.119c-27.563-27.292-55.495-54.357-82.531-82.19a25.76,25.76,0,0,1-6.589-18.384,141.875,141.875,0,0,1,8.751-27.876l-31.845-31.575c-.669.6-1.993,1.651-3.174,2.846a79.076,79.076,0,0,0,.271,111.815c1.067,1.053,2.163,2.078,3.273,3.074,35.175,35.261,70.677,70.222,106.066,105.3,1.837,1.821,3.97,3.344,5.521,4.624,17.417-16.89,34.9-32.728,50.87-49.9A76.646,76.646,0,0,0,1243.5,746.4a74.221,74.221,0,0,0-23.337-82.644l-32.543,32.5c18.128,25.357,16.264,37.723-9.62,58.768ZM963.04,392.428c6.275,5.777,12.195,10.915,17.758,16.421s10.574,11.142,15.654,16.577c24.63-21.1,40.995-18.726,61.456,7.8-2.22,2.362-4.44,4.867-6.816,7.215q-33.361,33.169-66.779,66.281c-20.362,20.192-32.87,20.875-53.6,3.913l-34.279,32.956a79.487,79.487,0,0,0,112.228,6.46c.911-.811,1.808-1.651,2.675-2.5,37.225-36.541,74.108-73.424,111.118-110.179,1.423-1.423,2.533-3.017,4.269-5.123-15.567-15.41-30.75-30.537-46.018-45.534a79.612,79.612,0,0,0-112.569.1c-1.779,1.793-3.487,3.657-5.095,5.607Zm51.439,371.6a78.268,78.268,0,0,0-110.392-7.94l-.839.726c-23.863,21.914-46.345,45.307-69.426,68.074-16.492,16.264-32.927,32.6-48.679,48.181,17.432,17.858,33.567,35.972,51.412,52.236a79.687,79.687,0,0,0,110.791-9.235c-10.4-10.188-20.135-19.736-29.882-29.256-1.2-1.167-2.532-2.191-3.727-3.216-25.614,18.129-43.33,15.055-59.764-10.159,26.752-26.723,53.417-53.574,80.368-80.127a28.219,28.219,0,0,1,28.63-6.958A91.054,91.054,0,0,1,981.6,796.731Zm43.969,109.325c-21.743,28.687-43.044,29.455-65.37,5.223-18.5-20.049-38.533-38.633-57.942-57.815-2.064-2.035-4.412-3.785-5.763-4.938L898.4,846.193c26.026,27.335,50.884,56.52,79.045,82.1a72.554,72.554,0,0,0,88.991,2.845,766.362,766.362,0,0,0,59.764-54.755l-60.134-59.166-33.112,32.97ZM1014.266,459.15c-25.613-25.685-50.344-52.507-77.251-77.024a75.51,75.51,0,0,0-95.765-3.714c-20.491,16.008-38.22,35.574-55.765,52.095l60.161,59.578,32.97-32.984c-3.9-3.529-8.3-7.812-13.035-11.7s-9.7-7.243-16.18-12.024c6.3-5.108,9.406-7.285,12.11-9.861a32.034,32.034,0,0,1,45.008-4.995,31.666,31.666,0,0,1,5.265,5.336q11.655,11.483,23.223,23.052l45.634,45.463ZM1149.3,712.777c28.075-26.908,56.149-51.027,80.781-78.262a74.66,74.66,0,0,0-.314-99.166c-16.151-17.929-34.464-33.937-50.585-49.6l-58.269,58.171,33.126,34.25,25.2-27.264c3.045,3.486,5.564,6.73,8.453,9.619a31.3,31.3,0,0,1,5.933,43.883,30.783,30.783,0,0,1-5.933,5.919c-7.429,7.527-15,14.927-22.512,22.369l-47.4,46.958c1.722,2.063,2.69,3.386,3.827,4.567,9.464,9.747,18.955,19.58,27.677,28.545ZM732.949,757.13c-3.572-4.126-5.692-6.844-8.055-9.249-17.9-18.071-17.972-34.222-.113-51.98q25.015-24.844,50.088-49.647c6.218-6.1,12.735-11.9,17.615-16.435L757.5,595.341c-22.938,22.867-46.843,46.645-70.691,70.479a75.43,75.43,0,0,0-10.559,97.828,655.144,655.144,0,0,0,54.641,58.981l59.222-58.8-33.4-32.941Zm142.579,8.452L775.083,665.905l-31.476,30.138,101.03,100.319Zm121.135,99.023,102.268-101.3-30.878-30.821L965.986,833.727ZM914.418,443.626l-102.68,101.84L841.976,575.7l102.78-101.883ZM1034.9,542.549l100.7,99.607,30.778-30.707-100.574-99.834Z" transform="translate(-662.605 -363.073)" fill="#0f245a"/>
  </g>
</svg>
