<svg xmlns="http://www.w3.org/2000/svg" xmlns:xlink="http://www.w3.org/1999/xlink" width="750.346" height="339.792" viewBox="0 0 750.346 339.792"><defs><linearGradient id="a" x1="1.774" y1="0.954" x2="-0.089" y2="0.29" gradientUnits="objectBoundingBox"><stop offset="0" stop-color="#180d5b"/><stop offset="0.095" stop-color="#191560"/><stop offset="0.247" stop-color="#1e2c6e"/><stop offset="0.436" stop-color="#255285"/><stop offset="0.656" stop-color="#2f87a5"/><stop offset="0.898" stop-color="#3cc9cd"/><stop offset="1" stop-color="#42e8e0"/></linearGradient><linearGradient id="b" x1="1.414" y1="0.842" x2="-1.117" y2="-0.105" xlink:href="#a"/><linearGradient id="c" x1="-26.281" y1="0.87" x2="-24.234" y2="0.241" xlink:href="#a"/><linearGradient id="d" x1="1.357" y1="1.314" x2="0.026" y2="0.05" xlink:href="#a"/><linearGradient id="e" x1="-0.332" y1="0.5" x2="1.097" y2="0.5" gradientUnits="objectBoundingBox"><stop offset="0" stop-color="#2b237c"/><stop offset="1" stop-color="#180d5b"/></linearGradient><linearGradient id="f" x1="1.105" y1="0.962" x2="-0.197" y2="-0.033" gradientUnits="objectBoundingBox"><stop offset="0" stop-color="#180d5b"/><stop offset="0.095" stop-color="#191560"/><stop offset="0.246" stop-color="#1d2c6e"/><stop offset="0.282" stop-color="#1f3372"/><stop offset="0.378" stop-color="#22447c"/><stop offset="0.568" stop-color="#2a7097"/><stop offset="0.832" stop-color="#38b7c2"/><stop offset="1" stop-color="#42e8e0"/></linearGradient><linearGradient id="g" x1="0.833" y1="0.875" x2="-0.005" y2="-0.068" xlink:href="#a"/><linearGradient id="i" x1="0.938" y1="0.832" x2="-0.234" y2="-0.056" xlink:href="#f"/><linearGradient id="j" x1="1.318" y1="0.565" x2="-0.015" y2="0.301" xlink:href="#a"/><linearGradient id="m" x1="0.917" y1="0.878" x2="-0.198" y2="-0.134" xlink:href="#f"/><linearGradient id="o" x1="0.5" y1="1" x2="0.5" gradientUnits="objectBoundingBox"><stop offset="0" stop-color="#fccc6b"/><stop offset="0.104" stop-color="#fccc6b" stop-opacity="0.776"/><stop offset="0.225" stop-color="#fccc6b" stop-opacity="0.541"/><stop offset="0.342" stop-color="#fccc6b" stop-opacity="0.349"/><stop offset="0.451" stop-color="#fccc6b" stop-opacity="0.196"/><stop offset="0.552" stop-color="#fccc6b" stop-opacity="0.09"/><stop offset="0.641" stop-color="#fccc6b" stop-opacity="0.024"/><stop offset="0.709" stop-color="#fccc6b" stop-opacity="0"/></linearGradient><linearGradient id="p" x1="-0.221" y1="0.5" x2="0.779" y2="0.5" gradientUnits="objectBoundingBox"><stop offset="0" stop-color="#42e8e0"/><stop offset="0.102" stop-color="#3cc9cd"/><stop offset="0.344" stop-color="#2f87a5"/><stop offset="0.564" stop-color="#255285"/><stop offset="0.753" stop-color="#1e2c6e"/><stop offset="0.905" stop-color="#191560"/><stop offset="1" stop-color="#180d5b"/></linearGradient><linearGradient id="q" x1="0" y1="0.5" x2="1" y2="0.5" xlink:href="#e"/><linearGradient id="r" x1="0" y1="0.5" x2="1" y2="0.5" xlink:href="#p"/><linearGradient id="t" x1="0.136" y1="0.839" x2="0.973" y2="-0.924" xlink:href="#p"/></defs><g transform="translate(-131.812 -155.199)"><g transform="translate(131.812 166.049)"><rect width="90.37" height="17.491" transform="translate(296.862 289.575) rotate(180)" fill="#e8f3ff"/><rect width="109.319" height="17.491" transform="translate(109.319 172.968) rotate(180)" fill="#e8f3ff"/><rect width="41.784" height="17.491" transform="translate(178.798 95.229) rotate(180)" fill="#e8f3ff"/><rect width="109.319" height="17.491" transform="translate(109.319 56.36) rotate(180)" fill="#e8f3ff"/><rect width="109.319" height="17.491" transform="translate(109.319 17.491) rotate(180)" fill="#e8f3ff"/></g><g transform="translate(882.159 444.773) rotate(180)"><rect width="90.37" height="17.491" transform="translate(296.862 289.575) rotate(180)" fill="#e8f3ff"/><rect width="109.319" height="17.491" transform="translate(109.319 172.968) rotate(180)" fill="#e8f3ff"/><rect width="41.784" height="17.491" transform="translate(178.798 95.229) rotate(180)" fill="#e8f3ff"/><rect width="109.319" height="17.491" transform="translate(109.319 56.36) rotate(180)" fill="#e8f3ff"/><rect width="109.319" height="17.491" transform="translate(109.319 17.491) rotate(180)" fill="#e8f3ff"/></g><rect width="133.357" height="180.776" rx="9.078" transform="translate(685.727 383.839) rotate(180)" fill="#09f"/><g transform="translate(569.145 218.636)"><rect width="30.383" height="5.881" transform="translate(99.808 149.63) rotate(180)" fill="#06f"/><rect width="14.048" height="5.881" transform="translate(60.114 149.63) rotate(180)" fill="#06f"/><rect width="36.754" height="5.881" transform="translate(36.754 149.63) rotate(180)" fill="#06f"/><rect width="30.383" height="5.881" transform="translate(99.808 136.562) rotate(180)" fill="#06f"/><rect width="14.048" height="5.881" transform="translate(60.114 136.562) rotate(180)" fill="#06f"/><rect width="36.754" height="5.881" transform="translate(36.754 136.562) rotate(180)" fill="#06f"/><rect width="30.383" height="5.881" transform="translate(99.808 123.494) rotate(180)" fill="#06f"/><rect width="14.048" height="5.881" transform="translate(60.114 123.494) rotate(180)" fill="#06f"/><rect width="36.754" height="5.881" transform="translate(36.754 123.494) rotate(180)" fill="#06f"/><rect width="30.383" height="5.881" transform="translate(99.808 110.426) rotate(180)" fill="#06f"/><rect width="14.048" height="5.881" transform="translate(60.114 110.426) rotate(180)" fill="#06f"/><rect width="36.754" height="5.881" transform="translate(36.754 110.426) rotate(180)" fill="#06f"/><rect width="30.383" height="5.881" transform="translate(99.808 97.358) rotate(180)" fill="#06f"/><rect width="14.048" height="5.881" transform="translate(60.114 97.358) rotate(180)" fill="#06f"/><rect width="36.754" height="5.881" transform="translate(36.754 97.358) rotate(180)" fill="#06f"/><rect width="30.383" height="5.881" transform="translate(99.808 84.29) rotate(180)" fill="#06f"/><rect width="14.048" height="5.881" transform="translate(60.114 84.29) rotate(180)" fill="#06f"/><rect width="36.754" height="5.881" transform="translate(36.754 84.29) rotate(180)" fill="#06f"/><rect width="30.383" height="5.881" transform="translate(99.808 71.221) rotate(180)" fill="#06f"/><rect width="14.048" height="5.881" transform="translate(60.114 71.221) rotate(180)" fill="#06f"/><rect width="36.754" height="5.881" transform="translate(36.754 71.221) rotate(180)" fill="#06f"/><rect width="30.383" height="5.881" transform="translate(99.808 58.153) rotate(180)" fill="#06f"/><rect width="14.048" height="5.881" transform="translate(60.114 58.153) rotate(180)" fill="#06f"/><rect width="36.754" height="5.881" transform="translate(36.754 58.153) rotate(180)" fill="#06f"/><rect width="30.383" height="5.881" transform="translate(99.808 45.085) rotate(180)" fill="#06f"/><rect width="14.048" height="5.881" transform="translate(60.114 45.085) rotate(180)" fill="#06f"/><rect width="36.754" height="5.881" transform="translate(36.754 45.085) rotate(180)" fill="#06f"/><rect width="30.383" height="5.881" transform="translate(99.808 32.017) rotate(180)" fill="#06f"/><rect width="14.048" height="5.881" transform="translate(60.114 32.017) rotate(180)" fill="#06f"/><rect width="36.754" height="5.881" transform="translate(36.754 32.017) rotate(180)" fill="#06f"/><rect width="30.383" height="5.881" transform="translate(99.808 18.949) rotate(180)" fill="#06f"/><rect width="14.048" height="5.881" transform="translate(60.114 18.949) rotate(180)" fill="#06f"/><rect width="36.754" height="5.881" transform="translate(36.754 18.949) rotate(180)" fill="#06f"/><rect width="30.383" height="5.881" transform="translate(99.808 5.881) rotate(180)" fill="#06f"/><rect width="14.048" height="5.881" transform="translate(60.114 5.881) rotate(180)" fill="#06f"/><rect width="36.754" height="5.881" transform="translate(36.754 5.881) rotate(180)" fill="#06f"/></g><rect width="133.357" height="180.776" rx="9.078" transform="translate(501.581 383.839) rotate(180)" fill="#09f"/><rect width="133.357" height="180.776" rx="9.078" transform="translate(320.619 383.839) rotate(180)" fill="#09f"/><g transform="translate(384.998 218.636)"><rect width="30.383" height="5.881" transform="translate(99.808 149.63) rotate(180)" fill="#fff"/><rect width="14.048" height="5.881" transform="translate(60.114 149.63) rotate(180)" fill="#fff"/><rect width="36.754" height="5.881" transform="translate(36.754 149.63) rotate(180)" fill="#fff"/><rect width="30.383" height="5.881" transform="translate(99.808 136.562) rotate(180)" fill="#fff"/><rect width="14.048" height="5.881" transform="translate(60.114 136.562) rotate(180)" fill="#fff"/><rect width="36.754" height="5.881" transform="translate(36.754 136.562) rotate(180)" fill="#fff"/><rect width="30.383" height="5.881" transform="translate(99.808 123.494) rotate(180)" fill="#fff"/><rect width="14.048" height="5.881" transform="translate(60.114 123.494) rotate(180)" fill="#fff"/><rect width="36.754" height="5.881" transform="translate(36.754 123.494) rotate(180)" fill="#fff"/><rect width="30.383" height="5.881" transform="translate(99.808 110.426) rotate(180)" fill="#fff"/><rect width="14.048" height="5.881" transform="translate(60.114 110.426) rotate(180)" fill="#fff"/><rect width="36.754" height="5.881" transform="translate(36.754 110.426) rotate(180)" fill="#fff"/><rect width="30.383" height="5.881" transform="translate(99.808 97.358) rotate(180)" fill="#fff"/><rect width="14.048" height="5.881" transform="translate(60.114 97.358) rotate(180)" fill="#fff"/><rect width="36.754" height="5.881" transform="translate(36.754 97.358) rotate(180)" fill="#fff"/><rect width="30.383" height="5.881" transform="translate(99.808 84.29) rotate(180)" fill="#fff"/><rect width="14.048" height="5.881" transform="translate(60.114 84.29) rotate(180)" fill="#fff"/><rect width="36.754" height="5.881" transform="translate(36.754 84.29) rotate(180)" fill="#fff"/><rect width="30.383" height="5.881" transform="translate(99.808 71.221) rotate(180)" fill="#fff"/><rect width="14.048" height="5.881" transform="translate(60.114 71.221) rotate(180)" fill="#fff"/><rect width="36.754" height="5.881" transform="translate(36.754 71.221) rotate(180)" fill="#fff"/><rect width="30.383" height="5.881" transform="translate(99.808 58.153) rotate(180)" fill="#fff"/><rect width="14.048" height="5.881" transform="translate(60.114 58.153) rotate(180)" fill="#fff"/><rect width="36.754" height="5.881" transform="translate(36.754 58.153) rotate(180)" fill="#fff"/><rect width="30.383" height="5.881" transform="translate(99.808 45.085) rotate(180)" fill="#fff"/><rect width="14.048" height="5.881" transform="translate(60.114 45.085) rotate(180)" fill="#fff"/><rect width="36.754" height="5.881" transform="translate(36.754 45.085) rotate(180)" fill="#fff"/><rect width="30.383" height="5.881" transform="translate(99.808 32.017) rotate(180)" fill="#fff"/><rect width="14.048" height="5.881" transform="translate(60.114 32.017) rotate(180)" fill="#fff"/><rect width="36.754" height="5.881" transform="translate(36.754 32.017) rotate(180)" fill="#fff"/><rect width="30.383" height="5.881" transform="translate(99.808 18.949) rotate(180)" fill="#fff"/><rect width="14.048" height="5.881" transform="translate(60.114 18.949) rotate(180)" fill="#fff"/><rect width="36.754" height="5.881" transform="translate(36.754 18.949) rotate(180)" fill="#fff"/><rect width="30.383" height="5.881" transform="translate(99.808 5.881) rotate(180)" fill="#fff"/><rect width="14.048" height="5.881" transform="translate(60.114 5.881) rotate(180)" fill="#fff"/><rect width="36.754" height="5.881" transform="translate(36.754 5.881) rotate(180)" fill="#fff"/></g><g transform="translate(200.852 218.636)"><g transform="translate(0 0)"><rect width="30.383" height="5.881" transform="translate(99.808 149.63) rotate(180)" fill="#fff"/><rect width="14.048" height="5.881" transform="translate(60.114 149.63) rotate(180)" fill="#fff"/><rect width="36.754" height="5.881" transform="translate(36.754 149.63) rotate(180)" fill="#fff"/><rect width="30.383" height="5.881" transform="translate(99.808 136.562) rotate(180)" fill="#fff"/><rect width="14.048" height="5.881" transform="translate(60.114 136.562) rotate(180)" fill="#fff"/><rect width="36.754" height="5.881" transform="translate(36.754 136.562) rotate(180)" fill="#fff"/><rect width="30.383" height="5.881" transform="translate(99.808 123.494) rotate(180)" fill="#fff"/><rect width="14.048" height="5.881" transform="translate(60.114 123.494) rotate(180)" fill="#fff"/><rect width="36.754" height="5.881" transform="translate(36.754 123.494) rotate(180)" fill="#fff"/><rect width="30.383" height="5.881" transform="translate(99.808 110.426) rotate(180)" fill="#fff"/><rect width="14.048" height="5.881" transform="translate(60.114 110.426) rotate(180)" fill="#fff"/><rect width="36.754" height="5.881" transform="translate(36.754 110.426) rotate(180)" fill="#fff"/><rect width="30.383" height="5.881" transform="translate(99.808 97.358) rotate(180)" fill="#fff"/><rect width="14.048" height="5.881" transform="translate(60.114 97.358) rotate(180)" fill="#fff"/><rect width="36.754" height="5.881" transform="translate(36.754 97.358) rotate(180)" fill="#fff"/><rect width="30.383" height="5.881" transform="translate(99.808 84.29) rotate(180)" fill="#fff"/><rect width="14.048" height="5.881" transform="translate(60.114 84.29) rotate(180)" fill="#fff"/><rect width="36.754" height="5.881" transform="translate(36.754 84.29) rotate(180)" fill="#fff"/><rect width="30.383" height="5.881" transform="translate(99.808 71.221) rotate(180)" fill="#fff"/><rect width="14.048" height="5.881" transform="translate(60.114 71.221) rotate(180)" fill="#fff"/><rect width="36.754" height="5.881" transform="translate(36.754 71.221) rotate(180)" fill="#fff"/><rect width="30.383" height="5.881" transform="translate(99.808 58.153) rotate(180)" fill="#fff"/><rect width="14.048" height="5.881" transform="translate(60.114 58.153) rotate(180)" fill="#fff"/><rect width="36.754" height="5.881" transform="translate(36.754 58.153) rotate(180)" fill="#fff"/><rect width="30.383" height="5.881" transform="translate(99.808 45.085) rotate(180)" fill="#fff"/><rect width="14.048" height="5.881" transform="translate(60.114 45.085) rotate(180)" fill="#fff"/><rect width="36.754" height="5.881" transform="translate(36.754 45.085) rotate(180)" fill="#fff"/><rect width="30.383" height="5.881" transform="translate(99.808 32.017) rotate(180)" fill="#fff"/><rect width="14.048" height="5.881" transform="translate(60.114 32.017) rotate(180)" fill="#fff"/><rect width="36.754" height="5.881" transform="translate(36.754 32.017) rotate(180)" fill="#fff"/><rect width="30.383" height="5.881" transform="translate(99.808 18.949) rotate(180)" fill="#fff"/><rect width="14.048" height="5.881" transform="translate(60.114 18.949) rotate(180)" fill="#fff"/><rect width="36.754" height="5.881" transform="translate(36.754 18.949) rotate(180)" fill="#fff"/><rect width="30.383" height="5.881" transform="translate(99.808 5.881) rotate(180)" fill="#fff"/><rect width="14.048" height="5.881" transform="translate(60.114 5.881) rotate(180)" fill="#fff"/><rect width="36.754" height="5.881" transform="translate(36.754 5.881) rotate(180)" fill="#fff"/></g></g><rect width="3.546" height="86.494" transform="translate(433.129 383.839)" fill="#09f" opacity="0.5"/><path d="M579.4,411.317H204.373V325.738h3.546v82.034H575.852V325.738H579.4Z" transform="translate(44.609 58.101)" fill="#09f" opacity="0.5"/><g transform="translate(200.852 231.704)"><rect width="14.048" height="5.881" transform="translate(60.114 136.562) rotate(180)" fill="#06f"/><rect width="30.383" height="5.881" transform="translate(99.808 110.426) rotate(180)" fill="#06f"/><rect width="14.048" height="5.881" transform="translate(60.114 71.222) rotate(180)" fill="#06f"/><rect width="36.754" height="5.881" transform="translate(36.754 71.222) rotate(180)" fill="#06f"/><rect width="14.048" height="5.881" transform="translate(60.114 18.949) rotate(180)" fill="#06f"/><rect width="36.754" height="5.881" transform="translate(36.754 5.881) rotate(180)" fill="#06f"/></g><g transform="translate(569.145 231.704)"><rect width="30.383" height="5.881" transform="translate(99.808 97.358) rotate(180)" fill="#fff"/><rect width="36.754" height="5.881" transform="translate(36.754 58.153) rotate(180)" fill="#fff"/><rect width="14.048" height="5.881" transform="translate(60.114 32.017) rotate(180)" fill="#fff"/><rect width="36.754" height="5.881" transform="translate(36.754 18.949) rotate(180)" fill="#fff"/><rect width="36.754" height="5.881" transform="translate(36.754 5.881) rotate(180)" fill="#fff"/></g><g transform="translate(525.268 242.586)"><g transform="translate(0 78.223)"><path d="M456.153,425.025l-64.293-37.12,64.291-37.118,64.293,37.12Z" transform="translate(-391.86 -250.844)" fill="#312a91"/><path d="M456.153,417.779,391.86,380.66l64.291-37.119,64.293,37.12Z" transform="translate(-391.86 -254.276)" fill="#312a91"/><g transform="translate(14.654 40.247)" opacity="0.9"><path d="M451.444,367.594,401.8,338.935l49.638-28.658,49.639,28.659Z" transform="translate(-401.805 -310.277)" fill="url(#a)"/><path d="M485.127,329.725V387.2L435.49,415.863v-57.48Z" transform="translate(-385.851 -301.066)" fill="url(#b)"/><path d="M401.805,329.725V387.2l49.638,28.659v-57.48Z" transform="translate(-401.804 -301.066)" fill="url(#c)"/></g><path d="M451.444,406.6,401.8,377.941l49.638-28.659,49.639,28.659Z" transform="translate(-387.151 -251.556)" opacity="0.7" fill="url(#d)" style="mix-blend-mode:lighten;isolation:isolate"/><path d="M499.781,368.731v10.678L435.49,416.527V405.849Z" transform="translate(-371.197 -242.345)" fill="url(#e)"/><path d="M391.86,368.73v10.678l64.293,37.12V405.85Z" transform="translate(-391.86 -242.346)" fill="#312a91"/><path d="M391.86,368.73v10.678l64.293,37.12V405.85Z" transform="translate(-391.86 -242.346)" opacity="0.7" fill="url(#f)" style="mix-blend-mode:lighten;isolation:isolate"/><path d="M456.153,364.45,391.86,327.33l64.291-37.119,64.293,37.12Z" transform="translate(-391.86 -279.534)" fill="#312a91"/><path d="M391.86,308.154v10.678l64.293,37.12V345.274Z" transform="translate(-391.86 -271.036)" fill="#312a91"/><path d="M456.153,352.52v78.588l-64.293-37.12V315.4Z" transform="translate(-391.86 -267.604)" fill="#42e8e0" opacity="0.3"/><g transform="translate(14.654 56.257)"><path d="M401.8,321.141v70.128l49.639,28.659,49.638-28.659V321.142L451.444,349.8Z" transform="translate(-401.804 -321.141)" fill="#42e8e0" opacity="0.3"/><path d="M451.444,349.8v70.128L401.8,391.269V321.141Z" transform="translate(-401.804 -321.141)" fill="#42e8e0" opacity="0.3"/></g><path d="M391.86,315.4v78.588l64.293,37.12,64.291-37.119V315.4L456.153,352.52Z" transform="translate(-391.86 -267.604)" fill="#5cfff3" opacity="0.5"/><path d="M456.153,357.2l-64.293-37.12,64.291-37.118,64.293,37.12Z" transform="translate(-391.86 -282.965)" fill="#312a91"/><path d="M456.153,357.2l-64.293-37.12,64.291-37.118,64.293,37.12Z" transform="translate(-391.86 -282.965)" opacity="0.7" fill="url(#g)" style="mix-blend-mode:lighten;isolation:isolate"/><path d="M499.781,308.155v10.678L435.49,355.951V345.273Z" transform="translate(-371.197 -271.035)" fill="url(#e)"/><path d="M391.86,308.154v10.678l64.293,37.12V345.274Z" transform="translate(-391.86 -271.036)" opacity="0.7" fill="url(#i)" style="mix-blend-mode:lighten;isolation:isolate"/><path d="M393.379,320.084l63.532-36.68-.759-.438L391.86,320.084l64.293,37.12.759-.438Z" transform="translate(-391.86 -282.965)" fill="url(#j)" style="mix-blend-mode:lighten;isolation:isolate"/><g transform="translate(5.887 0.726)"><path d="M454.261,350.339l-58.406-33.72,58.4-26.578,58.406,26.579Z" transform="translate(-395.856 -280.341)" fill="#312a91"/><path d="M395.856,306.34V308.9l58.406,33.72v-2.558Z" transform="translate(-395.856 -272.621)" fill="#312a91"/><path d="M454.261,350.9l-58.406-33.72,58.4-33.72,58.406,33.721Z" transform="translate(-395.856 -283.458)" fill="#312a91"/><path d="M454.261,350.9l-58.406-33.72,58.4-33.72,58.406,33.721Z" transform="translate(-395.856 -283.458)" opacity="0.7" fill="url(#g)" style="mix-blend-mode:lighten;isolation:isolate"/><path d="M493.894,306.341V308.9l-58.4,33.72V340.06Z" transform="translate(-377.084 -272.62)" fill="url(#e)"/><path d="M395.856,306.34V308.9l58.406,33.72v-2.558Z" transform="translate(-395.856 -272.621)" opacity="0.7" fill="url(#m)" style="mix-blend-mode:lighten;isolation:isolate"/><path d="M397.235,317.178l57.714-33.321-.69-.4-58.4,33.72,58.406,33.72.69-.4Z" transform="translate(-395.856 -283.458)" fill="url(#j)" style="mix-blend-mode:lighten;isolation:isolate"/></g><g transform="translate(22.385 10.251)"><path d="M409.257,315.39l-2.206-1.273,41.906-24.195,2.206,1.273Z" transform="translate(-407.051 -289.922)" fill="#42e8e0"/><path d="M412.25,317.118l-2.206-1.273,41.906-24.194,2.206,1.273Z" transform="translate(-405.633 -289.103)" fill="#42e8e0"/><path d="M415.244,318.846l-2.206-1.273,41.906-24.195,2.206,1.274Z" transform="translate(-404.216 -288.285)" fill="#42e8e0"/><path d="M418.237,320.575l-2.206-1.273,41.906-24.195,2.206,1.274Z" transform="translate(-402.798 -287.466)" fill="#42e8e0"/><path d="M421.231,322.3l-2.206-1.273,41.906-24.195,2.206,1.274Z" transform="translate(-401.38 -286.648)" fill="#42e8e0"/><path d="M424.224,324.031l-2.206-1.273,41.906-24.194,2.206,1.273Z" transform="translate(-399.962 -285.829)" fill="#42e8e0"/><path d="M427.218,325.76l-2.206-1.273,41.906-24.195,2.206,1.273Z" transform="translate(-398.545 -285.011)" fill="#42e8e0"/><path d="M430.211,327.488l-2.206-1.273,41.906-24.194,2.206,1.273Z" transform="translate(-397.127 -284.192)" fill="#42e8e0"/><path d="M433.205,329.216,431,327.943l41.906-24.194,2.206,1.274Z" transform="translate(-395.709 -283.373)" fill="#42e8e0"/><path d="M436.2,330.945l-2.206-1.273L475.9,305.477l2.206,1.273Z" transform="translate(-394.291 -282.555)" fill="#42e8e0"/></g><path d="M435.489,289.922l2.206,1.273-2.206,1.273Z" transform="translate(-371.197 -279.671)" fill="#73fff5"/><path d="M438.482,291.65l2.206,1.273-2.206,1.273Z" transform="translate(-369.779 -278.852)" fill="#73fff5"/><path d="M441.476,293.379l2.206,1.274-2.206,1.273Z" transform="translate(-368.362 -278.034)" fill="#73fff5"/><path d="M444.469,295.107l2.206,1.274-2.206,1.273Z" transform="translate(-366.944 -277.215)" fill="#73fff5"/><path d="M447.463,296.835l2.206,1.274-2.206,1.273Z" transform="translate(-365.526 -276.397)" fill="#73fff5"/><path d="M450.456,298.563l2.206,1.273-2.206,1.273Z" transform="translate(-364.108 -275.578)" fill="#73fff5"/><path d="M453.45,300.292l2.206,1.273-2.206,1.273Z" transform="translate(-362.691 -274.759)" fill="#73fff5"/><path d="M456.443,302.02l2.206,1.273-2.206,1.273Z" transform="translate(-361.273 -273.941)" fill="#73fff5"/><path d="M459.437,303.748l2.206,1.274-2.206,1.273Z" transform="translate(-359.855 -273.122)" fill="#73fff5"/><path d="M462.43,305.477l2.206,1.273-2.206,1.273Z" transform="translate(-358.437 -272.304)" fill="#73fff5"/><g transform="translate(22.385 10.251)" opacity="0.4"><path d="M409.257,315.39l-2.206-1.273,41.906-24.195,2.206,1.273Z" transform="translate(-407.051 -289.922)" fill="#7979d3"/><path d="M412.25,317.118l-2.206-1.273,41.906-24.194,2.206,1.273Z" transform="translate(-405.633 -289.103)" fill="#7979d3"/><path d="M415.244,318.846l-2.206-1.273,41.906-24.195,2.206,1.274Z" transform="translate(-404.216 -288.285)" fill="#7979d3"/><path d="M418.237,320.575l-2.206-1.273,41.906-24.195,2.206,1.274Z" transform="translate(-402.798 -287.466)" fill="#7979d3"/><path d="M421.231,322.3l-2.206-1.273,41.906-24.195,2.206,1.274Z" transform="translate(-401.38 -286.648)" fill="#7979d3"/><path d="M424.224,324.031l-2.206-1.273,41.906-24.194,2.206,1.273Z" transform="translate(-399.962 -285.829)" fill="#7979d3"/><path d="M427.218,325.76l-2.206-1.273,41.906-24.195,2.206,1.273Z" transform="translate(-398.545 -285.011)" fill="#7979d3"/><path d="M430.211,327.488l-2.206-1.273,41.906-24.194,2.206,1.273Z" transform="translate(-397.127 -284.192)" fill="#7979d3"/><path d="M433.205,329.216,431,327.943l41.906-24.194,2.206,1.274Z" transform="translate(-395.709 -283.373)" fill="#7979d3"/><path d="M436.2,330.945l-2.206-1.273L475.9,305.477l2.206,1.273Z" transform="translate(-394.291 -282.555)" fill="#7979d3"/></g><path d="M391.86,315.4v78.588l.884.51V315.911Z" transform="translate(-391.86 -267.604)" fill="#42e8e0" opacity="0.5"/><path d="M479.4,315.4v78.588l-.884.51V315.911Z" transform="translate(-350.818 -267.604)" fill="#42e8e0" opacity="0.5"/><path d="M435.978,340.871h0l-1.518-.876v78.6l1.518.865h0l1.518-.865v-78.6Z" transform="translate(-371.685 -255.955)" fill="#42e8e0" opacity="0.5"/><path d="M392.46,382.968l58.457-36.584L409.238,322.32l-16.778,9.172Z" transform="translate(-391.576 -264.326)" fill="#5cfff3" opacity="0.5"/><path d="M401.356,383.122,450.138,355.4v20.156l-32.268,17.1Z" transform="translate(-387.363 -248.66)" fill="#5cfff3" opacity="0.5"/><g transform="translate(3.992 54.968)" opacity="0.1"><path d="M394.569,322.767l55.436,31.985v-2.5l-55.436-31.985Z" transform="translate(-394.569 -320.267)" fill="#0b0244"/><path d="M394.569,326.75l55.436,31.985v-2.5L394.569,324.25Z" transform="translate(-394.569 -318.38)" fill="#0b0244"/><path d="M394.569,330.733l55.436,31.985v-2.5l-55.436-31.985Z" transform="translate(-394.569 -316.494)" fill="#0b0244"/><path d="M394.569,334.716,450.005,366.7v-2.5l-55.436-31.985Z" transform="translate(-394.569 -314.607)" fill="#0b0244"/><path d="M394.569,338.7l55.436,31.985v-2.5L394.569,336.2Z" transform="translate(-394.569 -312.721)" fill="#0b0244"/><path d="M394.569,342.682l55.436,31.985v-2.5l-55.436-31.985Z" transform="translate(-394.569 -310.835)" fill="#0b0244"/><path d="M394.569,346.665l55.436,31.985v-2.5l-55.436-31.985Z" transform="translate(-394.569 -308.948)" fill="#0b0244"/><path d="M394.569,350.648l55.436,31.985v-2.5l-55.436-31.985Z" transform="translate(-394.569 -307.062)" fill="#0b0244"/><path d="M394.569,354.631l55.436,31.985v-2.5L394.569,352.13Z" transform="translate(-394.569 -305.175)" fill="#0b0244"/><path d="M394.569,358.614,450.005,390.6v-2.5l-55.436-31.985Z" transform="translate(-394.569 -303.289)" fill="#0b0244"/><path d="M394.569,362.6l55.436,31.985v-2.5L394.569,360.1Z" transform="translate(-394.569 -301.403)" fill="#0b0244"/><path d="M394.569,366.58l55.436,31.985v-2.5l-55.436-31.985Z" transform="translate(-394.569 -299.516)" fill="#0b0244"/></g><g transform="translate(100.11 36.587)"><path d="M462.579,310.882a.7.7,0,0,1,0,1.332,2.553,2.553,0,0,1-2.306,0,.7.7,0,0,1,0-1.332A2.553,2.553,0,0,1,462.579,310.882Z" transform="translate(-459.795 -306.461)" fill="#fccc6b"/><path d="M465.016,309.477a.7.7,0,0,1,0,1.331,2.553,2.553,0,0,1-2.306,0,.7.7,0,0,1,0-1.331A2.545,2.545,0,0,1,465.016,309.477Z" transform="translate(-458.641 -307.127)" fill="#fccc6b"/><path d="M467.453,308.07a.7.7,0,0,1,0,1.331,2.553,2.553,0,0,1-2.306,0,.7.7,0,0,1,0-1.331A2.544,2.544,0,0,1,467.453,308.07Z" transform="translate(-457.487 -307.793)" fill="#fccc6b"/></g><g transform="translate(68.156 55.239)"><g transform="translate(0 10.489)"><path d="M440.277,342.788a2.392,2.392,0,0,1-1.083,1.876c-.6.345-1.083.065-1.083-.625a2.392,2.392,0,0,1,1.083-1.876C439.792,341.819,440.277,342.1,440.277,342.788Z" transform="translate(-438.111 -320.725)" fill="#88fff3"/><path d="M442.694,341.392a2.394,2.394,0,0,1-1.082,1.876c-.6.345-1.083.065-1.083-.625a2.392,2.392,0,0,1,1.083-1.876C442.209,340.423,442.694,340.7,442.694,341.392Z" transform="translate(-436.966 -321.387)" fill="#88fff3"/><path d="M445.112,340a2.392,2.392,0,0,1-1.083,1.876c-.6.345-1.082.065-1.082-.625a2.394,2.394,0,0,1,1.082-1.876C444.627,339.027,445.112,339.307,445.112,340Z" transform="translate(-435.821 -322.048)" fill="#88fff3"/><path d="M472.811,330.069,445.53,345.82v-2.5l27.281-15.751Z" transform="translate(-434.597 -327.568)" fill="#88fff3"/><g transform="translate(0 5.869)"><path d="M440.277,346.771a2.392,2.392,0,0,1-1.083,1.876c-.6.345-1.083.065-1.083-.625a2.392,2.392,0,0,1,1.083-1.876C439.792,345.8,440.277,346.082,440.277,346.771Z" transform="translate(-438.111 -324.708)" fill="#88fff3"/><path d="M442.694,345.375a2.4,2.4,0,0,1-1.082,1.876c-.6.345-1.083.065-1.083-.625a2.392,2.392,0,0,1,1.083-1.876C442.209,344.406,442.694,344.686,442.694,345.375Z" transform="translate(-436.966 -325.37)" fill="#88fff3"/><path d="M445.112,343.979a2.392,2.392,0,0,1-1.083,1.876c-.6.345-1.082.065-1.082-.625a2.394,2.394,0,0,1,1.082-1.876C444.627,343.01,445.112,343.29,445.112,343.979Z" transform="translate(-435.821 -326.031)" fill="#88fff3"/><path d="M472.811,334.052,445.53,349.8v-2.5l27.281-15.751Z" transform="translate(-434.597 -331.551)" fill="#88fff3"/></g><g transform="translate(0 11.739)"><path d="M440.277,350.754a2.392,2.392,0,0,1-1.083,1.876c-.6.345-1.083.065-1.083-.625a2.392,2.392,0,0,1,1.083-1.876C439.792,349.785,440.277,350.065,440.277,350.754Z" transform="translate(-438.111 -328.691)" fill="#88fff3"/><path d="M442.694,349.358a2.4,2.4,0,0,1-1.082,1.876c-.6.345-1.083.065-1.083-.625a2.392,2.392,0,0,1,1.083-1.876C442.209,348.389,442.694,348.669,442.694,349.358Z" transform="translate(-436.966 -329.353)" fill="#88fff3"/><path d="M445.112,347.962a2.392,2.392,0,0,1-1.083,1.876c-.6.345-1.082.065-1.082-.625a2.394,2.394,0,0,1,1.082-1.876C444.627,346.993,445.112,347.273,445.112,347.962Z" transform="translate(-435.821 -330.014)" fill="#88fff3"/><path d="M472.811,338.035,445.53,353.786v-2.5l27.281-15.751Z" transform="translate(-434.597 -335.534)" fill="#88fff3"/></g><g transform="translate(0 17.608)"><path d="M440.277,354.737a2.392,2.392,0,0,1-1.083,1.876c-.6.345-1.083.065-1.083-.625a2.392,2.392,0,0,1,1.083-1.876C439.792,353.768,440.277,354.048,440.277,354.737Z" transform="translate(-438.111 -332.674)" fill="#88fff3"/><path d="M442.694,353.341a2.4,2.4,0,0,1-1.082,1.876c-.6.345-1.083.065-1.083-.625a2.392,2.392,0,0,1,1.083-1.876C442.209,352.372,442.694,352.652,442.694,353.341Z" transform="translate(-436.966 -333.336)" fill="#88fff3"/><path d="M445.112,351.945a2.392,2.392,0,0,1-1.083,1.876c-.6.345-1.082.065-1.082-.625a2.4,2.4,0,0,1,1.082-1.876C444.627,350.976,445.112,351.256,445.112,351.945Z" transform="translate(-435.821 -333.997)" fill="#88fff3"/><path d="M472.811,342.018,445.53,357.769v-2.5l27.281-15.751Z" transform="translate(-434.597 -339.517)" fill="#88fff3"/></g><g transform="translate(0 23.478)"><path d="M440.277,358.72a2.392,2.392,0,0,1-1.083,1.876c-.6.345-1.083.065-1.083-.625a2.392,2.392,0,0,1,1.083-1.876C439.792,357.751,440.277,358.029,440.277,358.72Z" transform="translate(-438.111 -336.657)" fill="#88fff3"/><path d="M442.694,357.324a2.4,2.4,0,0,1-1.082,1.876c-.6.345-1.083.065-1.083-.625a2.392,2.392,0,0,1,1.083-1.876C442.209,356.355,442.694,356.635,442.694,357.324Z" transform="translate(-436.966 -337.319)" fill="#88fff3"/><path d="M445.112,355.928a2.392,2.392,0,0,1-1.083,1.876c-.6.345-1.082.065-1.082-.625a2.394,2.394,0,0,1,1.082-1.876C444.627,354.959,445.112,355.239,445.112,355.928Z" transform="translate(-435.821 -337.98)" fill="#88fff3"/><path d="M472.811,346,445.53,361.751v-2.5L472.811,343.5Z" transform="translate(-434.597 -343.5)" fill="#88fff3"/></g><g transform="translate(0 29.347)"><path d="M440.277,362.7a2.394,2.394,0,0,1-1.083,1.876c-.6.345-1.083.065-1.083-.625a2.392,2.392,0,0,1,1.083-1.876C439.792,361.734,440.277,362.012,440.277,362.7Z" transform="translate(-438.111 -340.64)" fill="#88fff3"/><path d="M442.694,361.307a2.4,2.4,0,0,1-1.082,1.876c-.6.345-1.083.065-1.083-.625a2.392,2.392,0,0,1,1.083-1.876C442.209,360.338,442.694,360.618,442.694,361.307Z" transform="translate(-436.966 -341.301)" fill="#88fff3"/><path d="M445.112,359.911a2.392,2.392,0,0,1-1.083,1.876c-.6.345-1.082.065-1.082-.625a2.394,2.394,0,0,1,1.082-1.876C444.627,358.942,445.112,359.222,445.112,359.911Z" transform="translate(-435.821 -341.963)" fill="#88fff3"/><path d="M472.811,349.984,445.53,365.734v-2.5l27.281-15.751Z" transform="translate(-434.597 -347.483)" fill="#88fff3"/></g><g transform="translate(0 35.216)"><path d="M440.277,366.687a2.394,2.394,0,0,1-1.083,1.876c-.6.345-1.083.065-1.083-.625a2.392,2.392,0,0,1,1.083-1.876C439.792,365.715,440.277,366,440.277,366.687Z" transform="translate(-438.111 -344.624)" fill="#88fff3"/><path d="M442.694,365.29a2.4,2.4,0,0,1-1.082,1.876c-.6.345-1.083.065-1.083-.625a2.392,2.392,0,0,1,1.083-1.876C442.209,364.321,442.694,364.6,442.694,365.29Z" transform="translate(-436.966 -345.285)" fill="#88fff3"/><path d="M445.112,363.894a2.392,2.392,0,0,1-1.083,1.876c-.6.345-1.082.065-1.082-.625a2.4,2.4,0,0,1,1.082-1.876C444.627,362.925,445.112,363.2,445.112,363.894Z" transform="translate(-435.821 -345.946)" fill="#88fff3"/><path d="M472.811,353.967,445.53,369.717v-2.5l27.281-15.751Z" transform="translate(-434.597 -351.466)" fill="#88fff3"/></g><g transform="translate(0 41.086)"><path d="M440.277,370.67a2.394,2.394,0,0,1-1.083,1.876c-.6.345-1.083.065-1.083-.625a2.392,2.392,0,0,1,1.083-1.876C439.792,369.7,440.277,369.978,440.277,370.67Z" transform="translate(-438.111 -348.607)" fill="#88fff3"/><path d="M442.694,369.273a2.4,2.4,0,0,1-1.082,1.876c-.6.345-1.083.065-1.083-.625a2.392,2.392,0,0,1,1.083-1.876C442.209,368.3,442.694,368.582,442.694,369.273Z" transform="translate(-436.966 -349.268)" fill="#88fff3"/><path d="M445.112,367.877a2.392,2.392,0,0,1-1.083,1.876c-.6.345-1.082.065-1.082-.625a2.4,2.4,0,0,1,1.082-1.876C444.627,366.908,445.112,367.188,445.112,367.877Z" transform="translate(-435.821 -349.929)" fill="#88fff3"/><path d="M472.811,357.95,445.53,373.7v-2.5l27.281-15.751Z" transform="translate(-434.597 -355.449)" fill="#88fff3"/></g><g transform="translate(0 46.955)"><path d="M440.277,374.653a2.394,2.394,0,0,1-1.083,1.876c-.6.345-1.083.065-1.083-.626a2.392,2.392,0,0,1,1.083-1.874C439.792,373.681,440.277,373.961,440.277,374.653Z" transform="translate(-438.111 -352.589)" fill="#88fff3"/><path d="M442.694,373.256a2.4,2.4,0,0,1-1.082,1.876c-.6.345-1.083.065-1.083-.625a2.392,2.392,0,0,1,1.083-1.876C442.209,372.287,442.694,372.565,442.694,373.256Z" transform="translate(-436.966 -353.25)" fill="#88fff3"/><path d="M445.112,371.86a2.392,2.392,0,0,1-1.083,1.876c-.6.345-1.082.065-1.082-.625a2.4,2.4,0,0,1,1.082-1.876C444.627,370.891,445.112,371.171,445.112,371.86Z" transform="translate(-435.821 -353.912)" fill="#88fff3"/><path d="M472.811,361.933,445.53,377.683v-2.5l27.281-15.751Z" transform="translate(-434.597 -359.432)" fill="#88fff3"/></g><g transform="translate(0 52.825)"><path d="M440.277,378.636a2.4,2.4,0,0,1-1.083,1.876c-.6.345-1.083.065-1.083-.626a2.392,2.392,0,0,1,1.083-1.874C439.792,377.664,440.277,377.944,440.277,378.636Z" transform="translate(-438.111 -356.572)" fill="#88fff3"/><path d="M442.694,377.24a2.4,2.4,0,0,1-1.082,1.876c-.6.345-1.083.065-1.083-.625a2.392,2.392,0,0,1,1.083-1.876C442.209,376.268,442.694,376.548,442.694,377.24Z" transform="translate(-436.966 -357.234)" fill="#88fff3"/><path d="M445.112,375.843a2.392,2.392,0,0,1-1.083,1.876c-.6.345-1.082.065-1.082-.625a2.4,2.4,0,0,1,1.082-1.876C444.627,374.874,445.112,375.152,445.112,375.843Z" transform="translate(-435.821 -357.895)" fill="#88fff3"/><path d="M472.811,365.916,445.53,381.666v-2.5l27.281-15.751Z" transform="translate(-434.597 -363.415)" fill="#88fff3"/></g><g transform="translate(0 58.694)"><path d="M440.277,382.619a2.4,2.4,0,0,1-1.083,1.876c-.6.345-1.083.065-1.083-.626a2.392,2.392,0,0,1,1.083-1.874C439.792,381.647,440.277,381.927,440.277,382.619Z" transform="translate(-438.111 -360.555)" fill="#88fff3"/><path d="M442.694,381.223a2.4,2.4,0,0,1-1.082,1.876c-.6.345-1.083.065-1.083-.626a2.392,2.392,0,0,1,1.083-1.874C442.209,380.251,442.694,380.531,442.694,381.223Z" transform="translate(-436.966 -361.217)" fill="#88fff3"/><path d="M445.112,379.826a2.4,2.4,0,0,1-1.083,1.876c-.6.345-1.082.065-1.082-.625a2.4,2.4,0,0,1,1.082-1.876C444.627,378.857,445.112,379.135,445.112,379.826Z" transform="translate(-435.821 -361.878)" fill="#88fff3"/><path d="M472.811,369.9,445.53,385.649v-2.5L472.811,367.4Z" transform="translate(-434.597 -367.398)" fill="#88fff3"/></g><g transform="translate(0 64.563)"><path d="M440.277,386.6a2.4,2.4,0,0,1-1.083,1.876c-.6.345-1.083.065-1.083-.626a2.392,2.392,0,0,1,1.083-1.874C439.792,385.63,440.277,385.91,440.277,386.6Z" transform="translate(-438.111 -364.538)" fill="#88fff3"/><path d="M442.694,385.206a2.4,2.4,0,0,1-1.082,1.876c-.6.345-1.083.065-1.083-.626a2.392,2.392,0,0,1,1.083-1.874C442.209,384.234,442.694,384.514,442.694,385.206Z" transform="translate(-436.966 -365.199)" fill="#88fff3"/><path d="M445.112,383.81a2.4,2.4,0,0,1-1.083,1.876c-.6.345-1.082.065-1.082-.625a2.4,2.4,0,0,1,1.082-1.876C444.627,382.838,445.112,383.118,445.112,383.81Z" transform="translate(-435.821 -365.861)" fill="#88fff3"/><path d="M472.811,373.882,445.53,389.632v-2.5l27.281-15.751Z" transform="translate(-434.597 -371.381)" fill="#88fff3"/></g></g><path d="M481.8,387.374l-16.017,9.247V329.7l16.017-9.248Z" transform="translate(-425.003 -320.451)" fill="#88fff3" opacity="0.5"/></g></g><path d="M464.669,229.883V345.634h0a.81.81,0,0,0,.477.666,2.554,2.554,0,0,0,2.306,0,.81.81,0,0,0,.477-.666V229.883Z" transform="translate(-357.377 -229.883)" fill="url(#o)" style="mix-blend-mode:lighten;isolation:isolate"/></g><g transform="translate(225.277 385.424)"><path d="M298.2,362.3v-8.631H275.938l-26.325-15.2c-3.513-2.029-9.649-1.774-13.706.567l-25.339,14.63H188.287v9.12h.018c-.1,1.372.666,2.7,2.353,3.672l46.235,26.693c3.513,2.028,9.651,1.774,13.706-.569l44.266-25.556C297.205,365.683,298.334,363.934,298.2,362.3Z" transform="translate(-188.286 -287.938)" fill="#312a91"/><path d="M298.2,362.3v-8.631H275.938l-26.325-15.2c-3.513-2.029-9.649-1.774-13.706.567l-25.339,14.63H188.287v9.12h.018c-.1,1.372.666,2.7,2.353,3.672l46.235,26.693c3.513,2.028,9.651,1.774,13.706-.569l44.266-25.556C297.205,365.683,298.334,363.934,298.2,362.3Z" transform="translate(-188.286 -287.938)" opacity="0.5" fill="url(#p)"/><path d="M231.948,338.473a12.4,12.4,0,0,0-6.363-1.359v57.4a15.79,15.79,0,0,0,7.349-1.927L277.2,367.032c2.34-1.351,3.469-3.1,3.336-4.73v-8.631H258.273Z" transform="translate(-170.621 -287.936)" fill="url(#q)"/><path d="M236.893,388.913,190.658,362.22c-3.513-2.028-3.073-5.572.984-7.913l44.265-25.556c4.057-2.343,10.193-2.6,13.706-.569l46.235,26.693c3.513,2.029,3.073,5.572-.983,7.913L250.6,388.346C246.544,390.687,240.406,390.942,236.893,388.913Z" transform="translate(-188.287 -292.813)" fill="#312a91"/><path d="M236.893,388.913,190.658,362.22c-3.513-2.028-3.073-5.572.984-7.913l44.265-25.556c4.057-2.343,10.193-2.6,13.706-.569l46.235,26.693c3.513,2.029,3.073,5.572-.983,7.913L250.6,388.346C246.544,390.687,240.406,390.942,236.893,388.913Z" transform="translate(-188.287 -292.813)" opacity="0.5" fill="url(#r)"/><path d="M234.7,381.032l-37.252-21.508c-2.831-1.634-2.476-4.489.793-6.376L233.9,332.557c3.269-1.886,8.212-2.091,11.043-.457L282.2,353.608c2.831,1.634,2.476,4.489-.793,6.375L245.74,380.574C242.472,382.462,237.528,382.667,234.7,381.032Z" transform="translate(-184.854 -290.831)" fill="#5cfff3"/><path d="M198.237,355.939,233.9,335.349c3.269-1.888,8.212-2.093,11.043-.458L282.2,356.4a4.156,4.156,0,0,1,1.516,1.4c.821-1.51.348-3.115-1.516-4.191L244.945,332.1c-2.831-1.634-7.775-1.429-11.043.457l-35.665,20.591c-2.461,1.422-3.268,3.391-2.309,4.975A5.916,5.916,0,0,1,198.237,355.939Z" transform="translate(-184.853 -290.831)" fill="#42e8e0"/><path d="M238.446,388.911l-46.235-26.693c-3.513-2.028-4.353-5.007.984-7.913l44.265-25.556a15.683,15.683,0,0,1,6.933-1.916,16.087,16.087,0,0,0-8.487,1.916L191.643,354.3c-4.057,2.342-4.5,5.886-.984,7.913l46.235,26.693a12.664,12.664,0,0,0,6.773,1.347A11.628,11.628,0,0,1,238.446,388.911Z" transform="translate(-188.287 -292.811)" opacity="0.5" fill="url(#r)"/><path d="M294.865,355.362,250.6,380.919c-4.055,2.342-10.193,2.6-13.706.567l-46.235-26.693c-1.687-.974-2.454-2.3-2.353-3.672h-.018v1.891h.018c-.1,1.372.666,2.7,2.353,3.671l46.235,26.695c3.513,2.028,9.651,1.774,13.706-.569l44.266-25.556c2.34-1.351,3.469-3.1,3.336-4.73v-1.889C298.334,352.261,297.205,354.01,294.865,355.362Z" transform="translate(-188.286 -281.531)" opacity="0.8" fill="url(#t)"/><g transform="translate(96.345 33.81)"><path d="M255.872,352.2a.557.557,0,0,1,0,1.055,2.017,2.017,0,0,1-1.827,0,.557.557,0,0,1,0-1.055A2.026,2.026,0,0,1,255.872,352.2Z" transform="translate(-253.667 -348.7)" fill="#fccc6b"/><path d="M257.8,351.089a.557.557,0,0,1,0,1.055,2.016,2.016,0,0,1-1.827,0,.557.557,0,0,1,0-1.055A2.025,2.025,0,0,1,257.8,351.089Z" transform="translate(-252.752 -349.228)" fill="#fccc6b"/><path d="M259.734,349.974a.557.557,0,0,1,0,1.055,2.017,2.017,0,0,1-1.827,0,.557.557,0,0,1,0-1.055A2.026,2.026,0,0,1,259.734,349.974Z" transform="translate(-251.837 -349.756)" fill="#fccc6b"/></g></g></g></svg>