<svg xmlns="http://www.w3.org/2000/svg" xmlns:xlink="http://www.w3.org/1999/xlink" width="553.546" height="408.157" viewBox="0 0 553.546 408.157"><defs><linearGradient id="a" y1="0.5" x2="1" y2="0.5" gradientUnits="objectBoundingBox"><stop offset="0" stop-color="#bcbeff"/><stop offset="0.151" stop-color="#a2a6f5"/><stop offset="0.387" stop-color="#8188e8"/><stop offset="0.612" stop-color="#6a72de"/><stop offset="0.822" stop-color="#5b65d8"/><stop offset="1" stop-color="#5761d7"/></linearGradient><radialGradient id="b" cx="0.536" cy="0.171" r="1.669" gradientTransform="translate(0.211) scale(0.577 1)" gradientUnits="objectBoundingBox"><stop offset="0" stop-color="#0cf"/><stop offset="0.051" stop-color="#01b5eb"/><stop offset="0.173" stop-color="#0587c1"/><stop offset="0.298" stop-color="#085f9d"/><stop offset="0.426" stop-color="#0a3e7f"/><stop offset="0.557" stop-color="#0c2568"/><stop offset="0.693" stop-color="#0d1358"/><stop offset="0.836" stop-color="#0e084f"/><stop offset="1" stop-color="#0f054c"/></radialGradient><linearGradient id="c" x1="0.643" y1="0.828" x2="0.357" y2="0.172" gradientTransform="matrix(1, 0, 0, 1, 0, 0)" xlink:href="#b"/><linearGradient id="d" x1="-0.247" y1="0.5" x2="1.034" y2="0.5" gradientUnits="objectBoundingBox"><stop offset="0" stop-color="#706ec4"/><stop offset="0.022" stop-color="#6d6bc1"/><stop offset="0.251" stop-color="#5651ac"/><stop offset="0.486" stop-color="#463e9d"/><stop offset="0.731" stop-color="#3c3393"/><stop offset="1" stop-color="#393091"/></linearGradient><linearGradient id="e" y1="0.5" x2="1" y2="0.5" gradientUnits="objectBoundingBox"><stop offset="0" stop-color="#0cf"/><stop offset="0.172" stop-color="#04c7fd"/><stop offset="0.375" stop-color="#0fb8f7"/><stop offset="0.594" stop-color="#22a1ee"/><stop offset="0.821" stop-color="#3d80e2"/><stop offset="1" stop-color="#5761d7"/></linearGradient><radialGradient id="k" cx="0.31" cy="-0.001" r="1.892" gradientTransform="translate(0.211) scale(0.577 1)" gradientUnits="objectBoundingBox"><stop offset="0" stop-color="#0cf"/><stop offset="0.051" stop-color="#0cb9f3"/><stop offset="0.159" stop-color="#2199de"/><stop offset="0.276" stop-color="#337fcc"/><stop offset="0.404" stop-color="#416abf"/><stop offset="0.548" stop-color="#4b5cb6"/><stop offset="0.721" stop-color="#5153b0"/><stop offset="1" stop-color="#5351af"/></radialGradient><clipPath id="l"><path d="M921.281,393.1,902.95,403.661l-73-42.146v-81.05l91.329,52.729Z" transform="translate(-829.952 -280.466)" fill="none"/></clipPath><clipPath id="m"><path d="M1014.936,429.94l18.331,10.565,73-42.146v-81.05l-91.329,52.729Z" transform="translate(-1014.936 -317.311)" fill="none"/></clipPath></defs><g transform="translate(-770.248 -193.558)"><g transform="translate(829.801 304.227)" opacity="0.2"><path d="M877.732,315.029c-1.584-18.53-16.521-39.951-33.361-47.845-8.436-3.953-15.749-3.761-20.748-.257l0,0L818.4,270.61l1.609.013c-2.594,3.793-3.834,9.163-3.264,15.823,1.584,18.529,16.52,39.951,33.36,47.843,5.787,2.712,11.046,3.474,15.392,2.555l0,1.483,5.3-3.741.065-.045.215-.152-.013,0C875.91,330.853,878.51,324.142,877.732,315.029Z" transform="translate(-798.839 -257.011)" fill="#9ff6ff"/><ellipse cx="23.812" cy="41.243" rx="23.812" ry="41.243" transform="matrix(0.82, -0.572, 0.572, 0.82, 0, 27.24)" fill="#0cf"/><path d="M855.742,334.156a25.15,25.15,0,0,1-10.552-2.639c-15-7.027-28.341-26.168-29.752-42.668-.692-8.084,1.539-14.357,6.281-17.664s11.4-3.232,18.75.21c14.994,7.03,28.341,26.17,29.751,42.67.692,8.084-1.538,14.355-6.281,17.664A14.083,14.083,0,0,1,855.742,334.156Zm-25.823-64.563a13.264,13.264,0,0,0-7.724,2.277c-4.486,3.13-6.593,9.135-5.927,16.908,1.389,16.236,14.522,35.069,29.277,41.984,7.062,3.311,13.424,3.414,17.916.284s6.593-9.135,5.927-16.908C868,297.9,854.866,279.068,840.113,272.152A24.345,24.345,0,0,0,829.919,269.593Z" transform="translate(-799.705 -254.006)" fill="#1d58ce"/></g><g transform="translate(781.047 234.656)"><g transform="translate(0 43.187)"><path d="M953.077,534.65a24.8,24.8,0,0,1-12.165-2.8L781.673,439.916c-3.194-1.843-4.95-4.41-4.95-7.223,0-3.377,2.527-6.775,6.935-9.318l303.7-175.34c8.256-4.768,20.8-5.282,27.966-1.144l159.239,91.935c3.194,1.843,4.952,4.408,4.952,7.223,0,3.377-2.528,6.773-6.937,9.318l-303.7,175.341A32.485,32.485,0,0,1,953.077,534.65Zm150.079-289.881a31.774,31.774,0,0,0-15.459,3.859L784,423.968c-4.19,2.418-6.591,5.6-6.591,8.724,0,2.559,1.636,4.913,4.608,6.631l159.237,91.937c6.978,4.026,19.213,3.511,27.282-1.146l303.7-175.341c4.189-2.418,6.591-5.6,6.591-8.724,0-2.558-1.636-4.915-4.607-6.631l-159.239-91.935A24.116,24.116,0,0,0,1103.156,244.769Z" transform="translate(-776.723 -244.094)" fill="#0cf"/></g><g transform="translate(0.342 0.813)"><path d="M1279.031,311.921l-22.873,3.939-141.144-81.49c-7.08-4.088-19.448-3.576-27.624,1.144l-270.024,155.9-40.435,6.963,0,14.335.018,0c-.018,2.613,1.534,5.114,4.762,6.977l159.239,91.935c7.08,4.088,19.448,3.576,27.624-1.144l303.7-175.34c4.4-2.542,6.67-5.784,6.741-8.873l.021-.005Z" transform="translate(-776.928 -210.057)" fill="url(#a)"/><path d="M940.947,505.816,781.708,413.88c-7.08-4.088-6.193-11.228,1.983-15.949l303.7-175.34c8.176-4.72,20.544-5.232,27.624-1.144l159.237,91.935c7.082,4.088,6.193,11.229-1.983,15.949l-303.7,175.34C960.4,509.392,948.026,509.905,940.947,505.816Z" transform="translate(-776.928 -218.687)" fill="#24126a"/><path d="M1272.263,288.251l-303.7,175.34c-8.176,4.72-20.544,5.234-27.624,1.144L781.7,372.8c-2.839-1.639-4.375-3.771-4.695-6.041-.439,2.944,1.089,5.819,4.695,7.9L940.942,466.6c7.08,4.088,19.448,3.576,27.624-1.146l303.7-175.34c4.9-2.827,7.158-6.521,6.679-9.909C1278.521,283.037,1276.274,285.934,1272.263,288.251Z" transform="translate(-776.923 -177.606)" fill="#fff"/><path d="M938.8,500.8,785.237,412.117c-6.852-3.956-5.991-10.866,1.92-15.434l298.063-172.041c7.912-4.568,19.88-5.063,26.732-1.107l153.563,88.683c6.851,3.956,5.992,10.866-1.92,15.434L965.532,499.692C957.62,504.26,945.651,504.756,938.8,500.8Z" transform="translate(-774.468 -217.234)" fill="#453c9e" opacity="0.51"/></g><path d="M938.8,498.427,785.237,409.743c-6.852-3.956-5.991-10.866,1.92-15.434l298.063-172.041c7.912-4.568,19.88-5.064,26.732-1.107l153.563,88.683c6.851,3.956,5.992,10.866-1.92,15.434L965.532,497.318C957.62,501.887,945.651,502.382,938.8,498.427Z" transform="translate(-774.126 -218.006)" opacity="0.5" fill="url(#b)" style="mix-blend-mode:lighten;isolation:isolate"/><g transform="translate(5.991)"><path d="M950.606,501.773a24.167,24.167,0,0,1-11.855-2.725L785.188,410.365c-3.142-1.815-4.873-4.346-4.873-7.132,0-3.329,2.477-6.666,6.793-9.158l298.063-172.042c8.036-4.64,20.251-5.139,27.227-1.107l153.561,88.685c3.142,1.813,4.873,4.345,4.873,7.13,0,3.327-2.475,6.666-6.791,9.16L965.977,497.94A31.592,31.592,0,0,1,950.606,501.773Zm-11.361-3.583c6.706,3.871,18.478,3.376,26.237-1.107l298.065-172.041c4-2.312,6.3-5.335,6.3-8.3,0-2.417-1.554-4.643-4.378-6.273L1111.9,221.783c-6.7-3.869-18.469-3.376-26.238,1.107L787.6,394.931c-4,2.31-6.3,5.335-6.3,8.3,0,2.415,1.556,4.645,4.38,6.274Z" transform="translate(-780.315 -218.2)" opacity="0.8" fill="url(#c)" style="mix-blend-mode:lighten;isolation:isolate"/></g><path d="M950.545,501.562a24.015,24.015,0,0,1-11.78-2.707L785.2,410.172c-3.094-1.785-4.8-4.273-4.8-7,0-3.274,2.448-6.565,6.718-9.026L1085.187,222.1c7.994-4.612,20.141-5.114,27.074-1.107l153.561,88.685c3.1,1.785,4.8,4.271,4.8,7,0,3.272-2.448,6.565-6.717,9.026L965.839,497.748A31.429,31.429,0,0,1,950.545,501.562Zm-11.436-3.3c6.75,3.893,18.584,3.4,26.388-1.107l298.065-172.041c4.048-2.338,6.373-5.412,6.371-8.434,0-2.472-1.581-4.747-4.453-6.4L1111.919,221.59c-6.746-3.893-18.584-3.4-26.39,1.107L787.466,394.738c-4.049,2.338-6.374,5.412-6.374,8.434,0,2.472,1.583,4.747,4.455,6.408Z" transform="translate(-774.263 -218.139)" fill="#0cf"/><g transform="translate(29.914 13.497)"><g transform="translate(70.672 43.561)"><path d="M925.061,263.8a4.7,4.7,0,0,1-2.325-.706l-15.781-9.111.365-.632,15.781,9.111a2.568,2.568,0,0,0,4.245-2.452V256.2a3.278,3.278,0,0,1,5.344-3.084l3.294,1.9-.364.632-3.3-1.9a2.569,2.569,0,0,0-4.246,2.452v3.806a3.715,3.715,0,0,1-1.588,3.421A2.825,2.825,0,0,1,925.061,263.8Z" transform="translate(-790.338 -252.411)" fill="#0cf" style="mix-blend-mode:lighten;isolation:isolate"/><path d="M921.381,265.915a4.713,4.713,0,0,1-2.327-.707L903.275,256.1l.365-.632,15.779,9.111a2.568,2.568,0,0,0,4.246-2.452v-3.806a3.277,3.277,0,0,1,5.342-3.084l3.3,1.9-.365.632-3.3-1.9a2.568,2.568,0,0,0-4.245,2.452v3.806a3.713,3.713,0,0,1-1.588,3.421A2.83,2.83,0,0,1,921.381,265.915Z" transform="translate(-792.795 -250.997)" fill="#0cf" style="mix-blend-mode:lighten;isolation:isolate"/><path d="M917.7,268.031a4.72,4.72,0,0,1-2.323-.707l-15.781-9.111.365-.632,15.779,9.111a2.567,2.567,0,0,0,4.245-2.452v-3.806a3.278,3.278,0,0,1,5.344-3.082l3.3,1.9-.365.632-3.294-1.9a2.568,2.568,0,0,0-4.246,2.452v3.806a3.707,3.707,0,0,1-1.588,3.419A2.813,2.813,0,0,1,917.7,268.031Z" transform="translate(-795.253 -249.583)" fill="#0cf" style="mix-blend-mode:lighten;isolation:isolate"/><path d="M914.019,270.149a4.72,4.72,0,0,1-2.325-.707l-15.779-9.111.365-.632,15.779,9.111a2.569,2.569,0,0,0,4.246-2.452v-3.806a3.278,3.278,0,0,1,5.342-3.084l3.3,1.9-.364.632-3.3-1.9a2.568,2.568,0,0,0-4.245,2.452v3.806a3.714,3.714,0,0,1-1.588,3.419A2.818,2.818,0,0,1,914.019,270.149Z" transform="translate(-797.71 -248.17)" fill="#0cf" style="mix-blend-mode:lighten;isolation:isolate"/><path d="M910.34,272.263a4.7,4.7,0,0,1-2.325-.707l-15.781-9.11.365-.63,15.781,9.108a2.566,2.566,0,0,0,4.245-2.45v-3.8a3.279,3.279,0,0,1,5.344-3.086l3.3,1.9-.365.63-3.3-1.9a2.569,2.569,0,0,0-4.246,2.453v3.8a3.708,3.708,0,0,1-1.588,3.421A2.826,2.826,0,0,1,910.34,272.263Z" transform="translate(-800.169 -246.755)" fill="#0cf" style="mix-blend-mode:lighten;isolation:isolate"/><path d="M906.659,274.38a4.7,4.7,0,0,1-2.323-.706l-15.781-9.111.364-.632,15.781,9.111a2.567,2.567,0,0,0,4.245-2.452v-3.806a3.278,3.278,0,0,1,5.342-3.084l3.3,1.9-.365.632-3.3-1.9a2.567,2.567,0,0,0-4.245,2.452v3.806a3.715,3.715,0,0,1-1.588,3.421A2.828,2.828,0,0,1,906.659,274.38Z" transform="translate(-802.626 -245.341)" fill="#0cf" style="mix-blend-mode:lighten;isolation:isolate"/><path d="M902.98,276.5a4.708,4.708,0,0,1-2.325-.707l-15.781-9.111.365-.632,15.781,9.111a2.567,2.567,0,0,0,4.245-2.452V268.9a3.278,3.278,0,0,1,5.344-3.084l3.294,1.9-.364.632-3.3-1.9A2.568,2.568,0,0,0,906,268.9v3.806a3.711,3.711,0,0,1-1.588,3.421A2.826,2.826,0,0,1,902.98,276.5Z" transform="translate(-805.084 -243.928)" fill="#0cf" style="mix-blend-mode:lighten;isolation:isolate"/><path d="M899.3,278.617a4.725,4.725,0,0,1-2.325-.707L881.194,268.8l.365-.632,15.781,9.111a2.567,2.567,0,0,0,4.245-2.453v-3.8a3.277,3.277,0,0,1,5.342-3.084l3.3,1.9-.365.632-3.3-1.9a2.568,2.568,0,0,0-4.245,2.452v3.8a3.708,3.708,0,0,1-1.588,3.421A2.811,2.811,0,0,1,899.3,278.617Z" transform="translate(-807.541 -242.514)" fill="#0cf" style="mix-blend-mode:lighten;isolation:isolate"/><path d="M895.618,280.733a4.72,4.72,0,0,1-2.323-.707l-15.781-9.111.364-.632,15.781,9.111a2.569,2.569,0,0,0,4.246-2.452v-3.806a3.278,3.278,0,0,1,5.342-3.084l3.3,1.9-.365.632-3.3-1.9a2.567,2.567,0,0,0-4.245,2.452v3.806a3.714,3.714,0,0,1-1.588,3.419A2.82,2.82,0,0,1,895.618,280.733Z" transform="translate(-809.999 -241.1)" fill="#0cf" style="mix-blend-mode:lighten;isolation:isolate"/><path d="M891.94,282.849a4.686,4.686,0,0,1-2.325-.707l-15.781-9.11.365-.63,15.781,9.108a2.567,2.567,0,0,0,4.245-2.45v-3.808a3.278,3.278,0,0,1,5.344-3.082l3.294,1.9-.364.632-3.3-1.9a2.569,2.569,0,0,0-4.246,2.45v3.808a3.717,3.717,0,0,1-1.588,3.421A2.827,2.827,0,0,1,891.94,282.849Z" transform="translate(-812.457 -239.687)" fill="#0cf" style="mix-blend-mode:lighten;isolation:isolate"/><path d="M888.26,284.966a4.711,4.711,0,0,1-2.327-.706l-15.779-9.111.365-.632,15.779,9.111a2.568,2.568,0,0,0,4.246-2.452v-3.806a3.277,3.277,0,0,1,5.342-3.084l3.3,1.9-.365.632-3.3-1.9a2.568,2.568,0,0,0-4.245,2.452v3.806a3.713,3.713,0,0,1-1.588,3.421A2.83,2.83,0,0,1,888.26,284.966Z" transform="translate(-814.914 -238.274)" fill="#0cf" style="mix-blend-mode:lighten;isolation:isolate"/><path d="M884.578,287.085a4.72,4.72,0,0,1-2.323-.707l-15.781-9.111.364-.632,15.781,9.111a2.567,2.567,0,0,0,4.245-2.452v-3.806a3.278,3.278,0,0,1,5.344-3.084l3.3,1.9-.365.632-3.294-1.9a2.568,2.568,0,0,0-4.246,2.452v3.806a3.708,3.708,0,0,1-1.588,3.419A2.83,2.83,0,0,1,884.578,287.085Z" transform="translate(-817.372 -236.859)" fill="#0cf" style="mix-blend-mode:lighten;isolation:isolate"/><path d="M880.9,289.2a4.72,4.72,0,0,1-2.323-.707l-15.779-9.111.365-.632,15.779,9.111a2.569,2.569,0,0,0,4.246-2.453v-3.8a3.277,3.277,0,0,1,5.342-3.084l3.3,1.9-.364.632-3.3-1.9a2.567,2.567,0,0,0-4.245,2.452v3.8a3.715,3.715,0,0,1-1.588,3.421A2.82,2.82,0,0,1,880.9,289.2Z" transform="translate(-819.829 -235.445)" fill="#0cf" style="mix-blend-mode:lighten;isolation:isolate"/><path d="M877.219,291.318a4.726,4.726,0,0,1-2.325-.707L859.113,281.5l.365-.632,15.781,9.111a2.568,2.568,0,0,0,4.245-2.453v-3.8a3.278,3.278,0,0,1,5.344-3.084l3.3,1.9-.365.632-3.3-1.9a2.568,2.568,0,0,0-4.246,2.452v3.8a3.711,3.711,0,0,1-1.588,3.421A2.811,2.811,0,0,1,877.219,291.318Z" transform="translate(-822.288 -234.031)" fill="#0cf" style="mix-blend-mode:lighten;isolation:isolate"/><path d="M873.538,293.434a4.681,4.681,0,0,1-2.323-.707l-15.781-9.11.364-.632,15.781,9.11a2.567,2.567,0,0,0,4.245-2.45v-3.808a3.278,3.278,0,0,1,5.342-3.082l3.3,1.9-.365.632-3.3-1.9a2.567,2.567,0,0,0-4.245,2.45v3.808a3.712,3.712,0,0,1-1.588,3.419A2.812,2.812,0,0,1,873.538,293.434Z" transform="translate(-824.744 -232.618)" fill="#0cf" style="mix-blend-mode:lighten;isolation:isolate"/><path d="M869.857,295.551a4.7,4.7,0,0,1-2.323-.706l-15.781-9.111.365-.632,15.781,9.111a2.567,2.567,0,0,0,4.245-2.452v-3.806a3.278,3.278,0,0,1,5.344-3.084l3.294,1.9-.364.632-3.3-1.9a2.568,2.568,0,0,0-4.246,2.452v3.806a3.711,3.711,0,0,1-1.588,3.421A2.828,2.828,0,0,1,869.857,295.551Z" transform="translate(-827.203 -231.204)" fill="#0cf" style="mix-blend-mode:lighten;isolation:isolate"/><path d="M866.179,297.669a4.726,4.726,0,0,1-2.325-.707l-15.781-9.111.365-.632,15.781,9.111a2.567,2.567,0,0,0,4.245-2.452v-3.806a3.277,3.277,0,0,1,5.342-3.084l3.3,1.9-.365.632-3.3-1.9a2.568,2.568,0,0,0-4.245,2.452v3.806a3.708,3.708,0,0,1-1.588,3.419A2.829,2.829,0,0,1,866.179,297.669Z" transform="translate(-829.66 -229.79)" fill="#0cf" style="mix-blend-mode:lighten;isolation:isolate"/><path d="M862.5,299.787a4.715,4.715,0,0,1-2.323-.707l-15.781-9.111.364-.632,15.781,9.111a2.569,2.569,0,0,0,4.246-2.453v-3.8a3.277,3.277,0,0,1,5.342-3.084l3.3,1.9-.365.632-3.3-1.9a2.567,2.567,0,0,0-4.245,2.452v3.8a3.712,3.712,0,0,1-1.589,3.421A2.826,2.826,0,0,1,862.5,299.787Z" transform="translate(-832.118 -228.377)" fill="#0cf" style="mix-blend-mode:lighten;isolation:isolate"/><path d="M858.817,301.9a4.7,4.7,0,0,1-2.323-.707l-15.781-9.11.365-.632,15.781,9.11a2.568,2.568,0,0,0,4.245-2.452v-3.8a3.278,3.278,0,0,1,5.344-3.084l3.294,1.9-.365.632-3.294-1.9a2.568,2.568,0,0,0-4.246,2.452v3.8a3.713,3.713,0,0,1-1.588,3.421A2.813,2.813,0,0,1,858.817,301.9Z" transform="translate(-834.575 -226.963)" fill="#0cf" style="mix-blend-mode:lighten;isolation:isolate"/><path d="M855.139,304.019a4.692,4.692,0,0,1-2.327-.707L837.033,294.2l.365-.632,15.779,9.111a2.567,2.567,0,0,0,4.246-2.45v-3.808a3.278,3.278,0,0,1,5.342-3.082l3.3,1.9-.365.632-3.3-1.9a2.567,2.567,0,0,0-4.245,2.45v3.808a3.713,3.713,0,0,1-1.588,3.419A2.815,2.815,0,0,1,855.139,304.019Z" transform="translate(-837.033 -225.549)" fill="#0cf" style="mix-blend-mode:lighten;isolation:isolate"/></g><g transform="translate(219.62)"><path d="M937.264,281.527a2.828,2.828,0,0,1-1.431-.369,3.715,3.715,0,0,1-1.588-3.421v-3.806A2.567,2.567,0,0,0,930,271.48l-3.3,1.9-.365-.632,3.3-1.9a3.279,3.279,0,0,1,5.344,3.084v3.806a2.567,2.567,0,0,0,4.245,2.452l92.929-53.9.368.632-92.933,53.9A4.7,4.7,0,0,1,937.264,281.527Z" transform="translate(-926.34 -226.292)" fill="#0cf" style="mix-blend-mode:lighten;isolation:isolate"/><path d="M940.943,283.644a2.826,2.826,0,0,1-1.429-.369,3.717,3.717,0,0,1-1.588-3.421v-3.806a2.567,2.567,0,0,0-4.245-2.452l-3.3,1.9-.364-.632,3.3-1.9a3.277,3.277,0,0,1,5.342,3.084v3.806a2.568,2.568,0,0,0,4.246,2.452l92.929-53.9.369.632-92.931,53.9A4.717,4.717,0,0,1,940.943,283.644Z" transform="translate(-923.882 -224.878)" fill="#0cf" style="mix-blend-mode:lighten;isolation:isolate"/><path d="M944.624,285.762a2.824,2.824,0,0,1-1.429-.372,3.7,3.7,0,0,1-1.589-3.419v-3.806a2.567,2.567,0,0,0-4.245-2.452l-3.3,1.9-.365-.632,3.3-1.9a3.278,3.278,0,0,1,5.344,3.084v3.806a2.567,2.567,0,0,0,4.245,2.452l92.931-53.9.367.63-92.931,53.9A4.736,4.736,0,0,1,944.624,285.762Z" transform="translate(-921.425 -223.464)" fill="#0cf" style="mix-blend-mode:lighten;isolation:isolate"/><path d="M948.306,287.879a2.82,2.82,0,0,1-1.433-.372,3.715,3.715,0,0,1-1.588-3.421v-3.8a2.568,2.568,0,0,0-4.245-2.453l-3.3,1.9-.365-.632,3.3-1.9a3.278,3.278,0,0,1,5.344,3.084v3.8a2.569,2.569,0,0,0,4.246,2.453l92.928-53.9.369.632-92.931,53.9A4.731,4.731,0,0,1,948.306,287.879Z" transform="translate(-918.967 -222.05)" fill="#0cf" style="mix-blend-mode:lighten;isolation:isolate"/><path d="M951.984,289.994a2.81,2.81,0,0,1-1.429-.37,3.712,3.712,0,0,1-1.588-3.419V282.4a2.568,2.568,0,0,0-4.246-2.452l-3.3,1.9-.364-.632,3.294-1.9A3.279,3.279,0,0,1,949.7,282.4V286.2a2.567,2.567,0,0,0,4.245,2.45l92.931-53.894.369.632L954.31,289.287A4.714,4.714,0,0,1,951.984,289.994Z" transform="translate(-916.509 -220.636)" fill="#0cf" style="mix-blend-mode:lighten;isolation:isolate"/><path d="M955.664,292.112a2.826,2.826,0,0,1-1.429-.369,3.713,3.713,0,0,1-1.588-3.421v-3.806a2.567,2.567,0,0,0-4.245-2.452l-3.3,1.9-.365-.63,3.3-1.9a3.278,3.278,0,0,1,5.342,3.084v3.806a2.568,2.568,0,0,0,4.246,2.452l92.929-53.9.367.632-92.929,53.9A4.707,4.707,0,0,1,955.664,292.112Z" transform="translate(-914.052 -219.223)" fill="#0cf" style="mix-blend-mode:lighten;isolation:isolate"/><path d="M959.345,294.229a2.828,2.828,0,0,1-1.431-.369,3.711,3.711,0,0,1-1.588-3.421v-3.806a2.568,2.568,0,0,0-4.246-2.452l-3.294,1.9-.365-.632,3.3-1.9a3.279,3.279,0,0,1,5.344,3.084v3.806a2.567,2.567,0,0,0,4.245,2.452l92.929-53.9.369.632-92.933,53.9A4.714,4.714,0,0,1,959.345,294.229Z" transform="translate(-911.594 -217.809)" fill="#0cf" style="mix-blend-mode:lighten;isolation:isolate"/><path d="M963.024,296.348a2.828,2.828,0,0,1-1.429-.372,3.708,3.708,0,0,1-1.588-3.419v-3.806a2.568,2.568,0,0,0-4.245-2.452l-3.3,1.9-.364-.632,3.3-1.9a3.277,3.277,0,0,1,5.342,3.084v3.806a2.567,2.567,0,0,0,4.245,2.452l92.931-53.9.368.632-92.933,53.9A4.731,4.731,0,0,1,963.024,296.348Z" transform="translate(-909.136 -216.396)" fill="#0cf" style="mix-blend-mode:lighten;isolation:isolate"/><path d="M966.706,298.464a2.817,2.817,0,0,1-1.431-.372,3.711,3.711,0,0,1-1.588-3.421v-3.8a2.568,2.568,0,0,0-4.245-2.453l-3.3,1.9-.365-.632,3.3-1.9a3.277,3.277,0,0,1,5.342,3.084v3.8a2.569,2.569,0,0,0,4.246,2.453l92.929-53.9.367.632-92.929,53.9A4.736,4.736,0,0,1,966.706,298.464Z" transform="translate(-906.679 -214.981)" fill="#0cf" style="mix-blend-mode:lighten;isolation:isolate"/><path d="M970.385,300.579a2.811,2.811,0,0,1-1.431-.37,3.712,3.712,0,0,1-1.588-3.419v-3.806a2.567,2.567,0,0,0-4.245-2.452l-3.3,1.9-.365-.632,3.3-1.9a3.278,3.278,0,0,1,5.342,3.084v3.806a2.567,2.567,0,0,0,4.245,2.45l92.93-53.894.368.632L972.71,299.872A4.714,4.714,0,0,1,970.385,300.579Z" transform="translate(-904.221 -213.567)" fill="#0cf" style="mix-blend-mode:lighten;isolation:isolate"/><path d="M974.064,302.7a2.826,2.826,0,0,1-1.429-.369,3.716,3.716,0,0,1-1.588-3.421V295.1a2.567,2.567,0,0,0-4.245-2.452l-3.3,1.9-.364-.63,3.3-1.9a3.277,3.277,0,0,1,5.342,3.084v3.806a2.567,2.567,0,0,0,4.246,2.45l92.929-53.9.369.632-92.931,53.9A4.7,4.7,0,0,1,974.064,302.7Z" transform="translate(-901.764 -212.154)" fill="#0cf" style="mix-blend-mode:lighten;isolation:isolate"/><path d="M977.745,304.814a2.828,2.828,0,0,1-1.429-.37,3.705,3.705,0,0,1-1.588-3.419v-3.806a2.568,2.568,0,0,0-4.246-2.452l-3.3,1.9-.365-.632,3.3-1.9a3.278,3.278,0,0,1,5.344,3.084v3.806a2.567,2.567,0,0,0,4.245,2.452l92.931-53.9.367.632-92.931,53.9A4.733,4.733,0,0,1,977.745,304.814Z" transform="translate(-899.306 -210.74)" fill="#0cf" style="mix-blend-mode:lighten;isolation:isolate"/><path d="M981.427,306.933a2.836,2.836,0,0,1-1.433-.372,3.717,3.717,0,0,1-1.588-3.421v-3.8a2.567,2.567,0,0,0-4.245-2.452l-3.3,1.9-.365-.632,3.3-1.9a3.277,3.277,0,0,1,5.342,3.084v3.8a2.569,2.569,0,0,0,4.246,2.453l92.928-53.9.369.632-92.931,53.9A4.73,4.73,0,0,1,981.427,306.933Z" transform="translate(-896.848 -209.327)" fill="#0cf" style="mix-blend-mode:lighten;isolation:isolate"/><path d="M985.106,309.049a2.818,2.818,0,0,1-1.431-.372,3.715,3.715,0,0,1-1.588-3.421v-3.8A2.569,2.569,0,0,0,977.841,299l-3.3,1.9-.364-.632,3.294-1.9a3.279,3.279,0,0,1,5.344,3.086v3.8a2.569,2.569,0,0,0,4.245,2.453l92.931-53.9.369.632-92.933,53.9A4.725,4.725,0,0,1,985.106,309.049Z" transform="translate(-894.39 -207.912)" fill="#0cf" style="mix-blend-mode:lighten;isolation:isolate"/><path d="M988.785,311.164a2.81,2.81,0,0,1-1.429-.37,3.71,3.71,0,0,1-1.588-3.419v-3.808a2.567,2.567,0,0,0-4.245-2.45l-3.3,1.9-.365-.632,3.3-1.9a3.278,3.278,0,0,1,5.342,3.082v3.808a2.568,2.568,0,0,0,4.246,2.45l92.93-53.894.367.632-92.929,53.894A4.724,4.724,0,0,1,988.785,311.164Z" transform="translate(-891.933 -206.498)" fill="#0cf" style="mix-blend-mode:lighten;isolation:isolate"/><path d="M992.466,313.282a2.828,2.828,0,0,1-1.431-.369,3.713,3.713,0,0,1-1.588-3.421v-3.808a2.568,2.568,0,0,0-4.246-2.45l-3.294,1.9-.365-.632,3.3-1.9a3.278,3.278,0,0,1,5.344,3.082v3.808a2.566,2.566,0,0,0,4.245,2.45l92.929-53.9.369.632-92.933,53.9A4.7,4.7,0,0,1,992.466,313.282Z" transform="translate(-889.475 -205.085)" fill="#0cf" style="mix-blend-mode:lighten;isolation:isolate"/><path d="M996.146,315.4a2.829,2.829,0,0,1-1.431-.37,3.708,3.708,0,0,1-1.588-3.419V307.8a2.567,2.567,0,0,0-4.245-2.452l-3.3,1.9-.364-.632,3.3-1.9a3.277,3.277,0,0,1,5.342,3.084v3.806a2.567,2.567,0,0,0,4.245,2.452l92.931-53.9.368.632-92.933,53.9A4.727,4.727,0,0,1,996.146,315.4Z" transform="translate(-887.017 -203.672)" fill="#0cf" style="mix-blend-mode:lighten;isolation:isolate"/><path d="M999.827,317.518a2.834,2.834,0,0,1-1.431-.372,3.717,3.717,0,0,1-1.588-3.421v-3.8a2.567,2.567,0,0,0-4.245-2.452l-3.3,1.9-.365-.632,3.3-1.9a3.277,3.277,0,0,1,5.342,3.084v3.8a2.569,2.569,0,0,0,4.246,2.453l92.929-53.9.367.632-92.929,53.9A4.736,4.736,0,0,1,999.827,317.518Z" transform="translate(-884.56 -202.258)" fill="#0cf" style="mix-blend-mode:lighten;isolation:isolate"/><path d="M1003.506,319.632a2.812,2.812,0,0,1-1.431-.37,3.713,3.713,0,0,1-1.588-3.421v-3.8a2.568,2.568,0,0,0-4.245-2.453l-3.3,1.9-.365-.632,3.3-1.9a3.278,3.278,0,0,1,5.342,3.085v3.8a2.567,2.567,0,0,0,4.245,2.452L1098.4,264.4l.368.63-92.932,53.9A4.709,4.709,0,0,1,1003.506,319.632Z" transform="translate(-882.102 -200.843)" fill="#0cf" style="mix-blend-mode:lighten;isolation:isolate"/><path d="M1007.186,321.75a2.812,2.812,0,0,1-1.431-.37,3.715,3.715,0,0,1-1.588-3.421v-3.806a2.566,2.566,0,0,0-4.245-2.45l-3.3,1.9-.365-.632,3.3-1.9a3.277,3.277,0,0,1,5.342,3.082v3.806a2.568,2.568,0,0,0,4.246,2.452l92.929-53.9.369.632-92.931,53.9A4.719,4.719,0,0,1,1007.186,321.75Z" transform="translate(-879.645 -199.43)" fill="#0cf" style="mix-blend-mode:lighten;isolation:isolate"/></g><g transform="translate(96.758 45.214)"><path d="M1095.2,295.38v14.013L973.937,379.4,852.674,309.391V295.378Z" transform="translate(-852.674 -225.369)" fill="url(#d)"/><path d="M973.937,393.423,852.674,323.411l121.26-70.01L1095.2,323.413Z" transform="translate(-852.674 -253.402)" fill="#bcbeff"/><path d="M973.937,364.081,854.091,294.888l-1.418.818,121.264,70.012,121.26-70.01-1.418-.818Z" transform="translate(-852.674 -225.697)" fill="#fff"/><g transform="translate(27.994 2.6)"><path d="M962.727,370.8l-93.268-53.848L962.724,263.1l93.268,53.848Z" transform="translate(-869.457 -249.523)" fill="#0f054c"/><path d="M962.728,370.8l-93.27-53.849L962.725,263.1l93.27,53.849Z" transform="translate(-869.458 -249.523)" opacity="0.5" fill="url(#e)"/><path d="M925.38,254.96l93.27,53.849v13.578l-93.27-53.849Z" transform="translate(-832.113 -254.96)" opacity="0.5" fill="url(#e)"/><path d="M962.728,268.539l-93.27,53.848V308.808l93.267-53.848Z" transform="translate(-869.458 -254.96)" opacity="0.5" fill="url(#e)"/><path d="M962.728,362.657l-93.27-53.849,93.267-53.848,93.27,53.849Z" transform="translate(-869.458 -254.96)" opacity="0.5" fill="url(#e)"/><path d="M951.727,340.445l-65.8-37.988,65.8-37.987,65.8,37.988Z" transform="translate(-858.458 -248.61)" fill="#0cf" opacity="0.7"/><path d="M940.3,317.38l-37.269-21.517L940.3,274.346l37.269,21.517Z" transform="translate(-847.035 -242.014)" fill="#0cf" opacity="0.5"/><path d="M940.3,276.326l35.554,20.527,1.714-.99L940.3,274.346l-37.267,21.517,1.714.99Z" transform="translate(-847.035 -242.014)" fill="#0cf" opacity="0.5"/><path d="M925.381,341.1v13.578l93.267-53.848V287.248Z" transform="translate(-832.111 -233.398)" opacity="0.5" fill="url(#e)"/><path d="M869.458,287.247v13.578l93.27,53.849V341.1Z" transform="translate(-869.458 -233.399)" opacity="0.5" fill="url(#e)"/><path d="M962.728,339.911,870.742,286.8l-1.284.741,93.27,53.849,93.267-53.848-1.284-.741Z" transform="translate(-869.458 -233.696)" fill="#0cf" opacity="0.8"/></g></g><g transform="translate(219.62 116.562)"><path d="M955,368.531l-15.779-9.11a11.019,11.019,0,0,1-4.978-8.619v-3.808a10.21,10.21,0,0,0-4.61-7.987l-3.3-1.9.365-.632,3.3,1.9a11.019,11.019,0,0,1,4.979,8.619V350.8a10.212,10.212,0,0,0,4.608,7.987l15.781,9.111Z" transform="translate(-926.34 -269.272)" fill="#0cf" style="mix-blend-mode:lighten;isolation:isolate"/><path d="M958.683,366.41,942.9,357.3a11.012,11.012,0,0,1-4.978-8.618v-3.806a10.2,10.2,0,0,0-4.61-7.987l-3.3-1.9.364-.632,3.3,1.9a11.014,11.014,0,0,1,4.977,8.619v3.806a10.211,10.211,0,0,0,4.612,7.987l15.779,9.11Z" transform="translate(-923.882 -270.689)" fill="#0cf" style="mix-blend-mode:lighten;isolation:isolate"/><path d="M962.365,364.289l-15.781-9.11a11.014,11.014,0,0,1-4.978-8.619v-3.806a10.211,10.211,0,0,0-4.61-7.987l-3.3-1.9.365-.63,3.3,1.9a11.021,11.021,0,0,1,4.978,8.619v3.806a10.2,10.2,0,0,0,4.61,7.987l15.781,9.11Z" transform="translate(-921.425 -272.105)" fill="#0cf" style="mix-blend-mode:lighten;isolation:isolate"/><path d="M966.043,362.17l-15.777-9.111a11.01,11.01,0,0,1-4.98-8.619v-3.806a10.207,10.207,0,0,0-4.61-7.987l-3.3-1.9.365-.632,3.3,1.9a11.016,11.016,0,0,1,4.978,8.619v3.806a10.206,10.206,0,0,0,4.61,7.987l15.779,9.111Z" transform="translate(-918.967 -273.522)" fill="#0cf" style="mix-blend-mode:lighten;isolation:isolate"/><path d="M969.724,360.048l-15.781-9.111a11.011,11.011,0,0,1-4.977-8.619v-3.8a10.2,10.2,0,0,0-4.612-7.987l-3.294-1.9.364-.632,3.3,1.9a11.015,11.015,0,0,1,4.978,8.619v3.8a10.206,10.206,0,0,0,4.61,7.987l15.781,9.111Z" transform="translate(-916.509 -274.938)" fill="#0cf" style="mix-blend-mode:lighten;isolation:isolate"/><path d="M973.4,357.929l-15.779-9.111a11.016,11.016,0,0,1-4.978-8.619v-3.806a10.211,10.211,0,0,0-4.61-7.987l-3.3-1.9.365-.632,3.3,1.9a11.016,11.016,0,0,1,4.977,8.619V340.2a10.209,10.209,0,0,0,4.612,7.987L973.77,357.3Z" transform="translate(-914.052 -276.354)" fill="#0cf" style="mix-blend-mode:lighten;isolation:isolate"/><path d="M977.084,355.808,961.3,346.7a11.008,11.008,0,0,1-4.978-8.619v-3.8a10.206,10.206,0,0,0-4.61-7.987l-3.3-1.9.365-.632,3.294,1.9a11.01,11.01,0,0,1,4.98,8.619v3.8a10.2,10.2,0,0,0,4.608,7.987l15.781,9.111Z" transform="translate(-911.594 -277.771)" fill="#0cf" style="mix-blend-mode:lighten;isolation:isolate"/><path d="M980.764,353.688l-15.781-9.111a11.019,11.019,0,0,1-4.977-8.619v-3.806a10.2,10.2,0,0,0-4.61-7.987l-3.3-1.9.364-.632,3.3,1.9a11.016,11.016,0,0,1,4.977,8.619v3.806a10.212,10.212,0,0,0,4.61,7.987l15.781,9.111Z" transform="translate(-909.136 -279.186)" fill="#0cf" style="mix-blend-mode:lighten;isolation:isolate"/><path d="M984.447,351.567l-15.781-9.111a11.011,11.011,0,0,1-4.978-8.619v-3.8a10.209,10.209,0,0,0-4.61-7.989l-3.3-1.9.365-.632,3.3,1.9a11.009,11.009,0,0,1,4.977,8.619v3.8a10.2,10.2,0,0,0,4.611,7.987l15.781,9.111Z" transform="translate(-906.679 -280.603)" fill="#0cf" style="mix-blend-mode:lighten;isolation:isolate"/><path d="M988.126,349.445l-15.781-9.11a11.019,11.019,0,0,1-4.978-8.619v-3.808a10.207,10.207,0,0,0-4.608-7.987l-3.3-1.9.365-.632,3.3,1.9a11.014,11.014,0,0,1,4.978,8.619v3.808a10.212,10.212,0,0,0,4.608,7.987l15.781,9.11Z" transform="translate(-904.221 -282.019)" fill="#0cf" style="mix-blend-mode:lighten;isolation:isolate"/><path d="M991.8,347.324l-15.779-9.11a11.023,11.023,0,0,1-4.979-8.619v-3.808a10.21,10.21,0,0,0-4.61-7.987l-3.3-1.9.364-.632,3.3,1.9a11.019,11.019,0,0,1,4.977,8.619V329.6a10.216,10.216,0,0,0,4.612,7.987l15.779,9.111Z" transform="translate(-901.764 -283.435)" fill="#0cf" style="mix-blend-mode:lighten;isolation:isolate"/><path d="M995.486,345.2l-15.781-9.111a11.007,11.007,0,0,1-4.977-8.619v-3.8a10.208,10.208,0,0,0-4.612-7.987l-3.3-1.9.365-.632,3.3,1.9a11.015,11.015,0,0,1,4.978,8.619v3.8a10.2,10.2,0,0,0,4.61,7.989l15.781,9.11Z" transform="translate(-899.306 -284.851)" fill="#0cf" style="mix-blend-mode:lighten;isolation:isolate"/><path d="M999.166,343.083l-15.779-9.111a11.015,11.015,0,0,1-4.98-8.619v-3.806a10.21,10.21,0,0,0-4.608-7.987l-3.3-1.9.365-.63,3.3,1.9a11.016,11.016,0,0,1,4.979,8.619v3.806a10.209,10.209,0,0,0,4.61,7.987l15.779,9.111Z" transform="translate(-896.848 -286.267)" fill="#0cf" style="mix-blend-mode:lighten;isolation:isolate"/><path d="M1002.845,340.963l-15.781-9.111a11.011,11.011,0,0,1-4.977-8.619v-3.8a10.2,10.2,0,0,0-4.612-7.987l-3.294-1.9.364-.632,3.3,1.9a11.011,11.011,0,0,1,4.979,8.619v3.8a10.206,10.206,0,0,0,4.61,7.987l15.781,9.111Z" transform="translate(-894.39 -287.684)" fill="#0cf" style="mix-blend-mode:lighten;isolation:isolate"/><path d="M1006.526,338.841l-15.779-9.11a11.014,11.014,0,0,1-4.978-8.619v-3.806a10.212,10.212,0,0,0-4.61-7.987l-3.3-1.9.365-.632,3.3,1.9a11.019,11.019,0,0,1,4.977,8.619v3.806a10.209,10.209,0,0,0,4.612,7.987l15.779,9.11Z" transform="translate(-891.933 -289.1)" fill="#0cf" style="mix-blend-mode:lighten;isolation:isolate"/><path d="M1010.207,336.722l-15.781-9.111a11.008,11.008,0,0,1-4.979-8.619v-3.806a10.211,10.211,0,0,0-4.61-7.987l-3.3-1.9.365-.632,3.294,1.9a11.015,11.015,0,0,1,4.98,8.619v3.806a10.2,10.2,0,0,0,4.608,7.987l15.781,9.111Z" transform="translate(-889.475 -290.517)" fill="#0cf" style="mix-blend-mode:lighten;isolation:isolate"/><path d="M1013.885,334.6,998.1,325.489a11.014,11.014,0,0,1-4.977-8.619v-3.8a10.2,10.2,0,0,0-4.61-7.987l-3.3-1.9.364-.632,3.3,1.9a11.007,11.007,0,0,1,4.977,8.619v3.8a10.206,10.206,0,0,0,4.61,7.987l15.781,9.111Z" transform="translate(-887.017 -291.932)" fill="#0cf" style="mix-blend-mode:lighten;isolation:isolate"/><path d="M1017.568,332.481l-15.781-9.111a11.016,11.016,0,0,1-4.979-8.619v-3.806a10.209,10.209,0,0,0-4.61-7.987l-3.3-1.9.365-.632,3.3,1.9a11.014,11.014,0,0,1,4.977,8.619v3.806a10.209,10.209,0,0,0,4.612,7.987l15.781,9.111Z" transform="translate(-884.56 -293.349)" fill="#0cf" style="mix-blend-mode:lighten;isolation:isolate"/><path d="M1021.247,330.36l-15.781-9.111a11.014,11.014,0,0,1-4.979-8.619v-3.806a10.207,10.207,0,0,0-4.608-7.987l-3.3-1.9.365-.632,3.3,1.9a11.008,11.008,0,0,1,4.979,8.618v3.806a10.207,10.207,0,0,0,4.608,7.987l15.781,9.111Z" transform="translate(-882.102 -294.765)" fill="#0cf" style="mix-blend-mode:lighten;isolation:isolate"/><path d="M1024.925,328.238l-15.779-9.11a11.023,11.023,0,0,1-4.979-8.619V306.7a10.21,10.21,0,0,0-4.61-7.987l-3.3-1.9.365-.632,3.3,1.9a11.014,11.014,0,0,1,4.977,8.619v3.808a10.216,10.216,0,0,0,4.612,7.987l15.779,9.111Z" transform="translate(-879.645 -296.181)" fill="#0cf" style="mix-blend-mode:lighten;isolation:isolate"/></g><g transform="translate(0 116.562)"><path d="M864.95,409.408l-.369-.632L950.7,358.789a10.209,10.209,0,0,0,4.61-7.987v-3.808a11.021,11.021,0,0,1,4.98-8.619l3.294-1.9.365.632-3.294,1.9a10.212,10.212,0,0,0-4.612,7.987V350.8a11.019,11.019,0,0,1-4.977,8.619Z" transform="translate(-747.964 -269.272)" fill="#0cf" style="mix-blend-mode:lighten;isolation:isolate"/><path d="M861.27,407.289l-.369-.632,86.123-49.988a10.2,10.2,0,0,0,4.611-7.987v-3.806a11.017,11.017,0,0,1,4.977-8.619l3.3-1.9.363.632-3.3,1.9a10.2,10.2,0,0,0-4.61,7.987v3.806a11.011,11.011,0,0,1-4.977,8.618Z" transform="translate(-750.421 -270.689)" fill="#0cf" style="mix-blend-mode:lighten;isolation:isolate"/><path d="M857.589,405.167l-.367-.632,86.12-49.988a10.2,10.2,0,0,0,4.613-7.987v-3.806a11.016,11.016,0,0,1,4.977-8.619l3.3-1.9.365.63-3.3,1.9a10.21,10.21,0,0,0-4.608,7.987v3.806a11.015,11.015,0,0,1-4.98,8.619Z" transform="translate(-752.878 -272.105)" fill="#0cf" style="mix-blend-mode:lighten;isolation:isolate"/><path d="M853.91,403.048l-.369-.632,86.123-49.99a10.2,10.2,0,0,0,4.61-7.987v-3.806a11.018,11.018,0,0,1,4.98-8.619l3.294-1.9.365.632-3.294,1.9a10.209,10.209,0,0,0-4.612,7.987v3.806a11.008,11.008,0,0,1-4.978,8.619Z" transform="translate(-755.336 -273.522)" fill="#0cf" style="mix-blend-mode:lighten;isolation:isolate"/><path d="M850.229,400.926l-.368-.632,86.121-49.99a10.205,10.205,0,0,0,4.613-7.987v-3.8a11.011,11.011,0,0,1,4.977-8.619l3.3-1.9.364.632-3.3,1.9a10.2,10.2,0,0,0-4.61,7.987v3.8a11.013,11.013,0,0,1-4.978,8.619Z" transform="translate(-757.794 -274.938)" fill="#0cf" style="mix-blend-mode:lighten;isolation:isolate"/><path d="M846.548,398.807l-.367-.632,86.121-49.99a10.2,10.2,0,0,0,4.611-7.987v-3.806a11.018,11.018,0,0,1,4.979-8.619l3.3-1.9.365.632-3.3,1.9a10.211,10.211,0,0,0-4.61,7.987V340.2a11.016,11.016,0,0,1-4.978,8.619Z" transform="translate(-760.252 -276.354)" fill="#0cf" style="mix-blend-mode:lighten;isolation:isolate"/><path d="M842.87,396.686l-.369-.632,86.121-49.99a10.2,10.2,0,0,0,4.611-7.987v-3.8a11.009,11.009,0,0,1,4.979-8.619l3.3-1.9.365.632-3.3,1.9a10.2,10.2,0,0,0-4.608,7.987v3.8a11.013,11.013,0,0,1-4.98,8.619Z" transform="translate(-762.709 -277.771)" fill="#0cf" style="mix-blend-mode:lighten;isolation:isolate"/><path d="M839.189,394.564l-.369-.632,86.123-49.988a10.209,10.209,0,0,0,4.611-7.987v-3.806a11.018,11.018,0,0,1,4.979-8.619l3.3-1.9.363.632-3.294,1.9a10.206,10.206,0,0,0-4.612,7.987v3.806a11.016,11.016,0,0,1-4.977,8.619Z" transform="translate(-765.167 -279.186)" fill="#0cf" style="mix-blend-mode:lighten;isolation:isolate"/><path d="M835.508,392.443l-.367-.632,86.12-49.988a10.2,10.2,0,0,0,4.613-7.987v-3.8a11.011,11.011,0,0,1,4.977-8.619l3.3-1.9.365.632-3.3,1.9a10.209,10.209,0,0,0-4.61,7.989v3.8a11.011,11.011,0,0,1-4.978,8.619Z" transform="translate(-767.624 -280.603)" fill="#0cf" style="mix-blend-mode:lighten;isolation:isolate"/><path d="M831.829,390.322l-.369-.632L917.583,339.7a10.21,10.21,0,0,0,4.61-7.987v-3.808a11.015,11.015,0,0,1,4.98-8.619l3.294-1.9.365.632-3.3,1.9a10.209,10.209,0,0,0-4.61,7.987v3.808a11.016,11.016,0,0,1-4.978,8.619Z" transform="translate(-770.083 -282.019)" fill="#0cf" style="mix-blend-mode:lighten;isolation:isolate"/><path d="M828.148,388.2l-.368-.632L913.9,337.582a10.212,10.212,0,0,0,4.611-7.987v-3.808a11.021,11.021,0,0,1,4.977-8.619l3.3-1.9.364.632-3.3,1.9a10.21,10.21,0,0,0-4.61,7.987V329.6a11.021,11.021,0,0,1-4.977,8.619Z" transform="translate(-772.54 -283.435)" fill="#0cf" style="mix-blend-mode:lighten;isolation:isolate"/><path d="M824.468,386.081l-.367-.632,86.12-49.988a10.2,10.2,0,0,0,4.613-7.989v-3.8a11.011,11.011,0,0,1,4.977-8.619l3.3-1.9.365.632-3.3,1.9a10.206,10.206,0,0,0-4.61,7.987v3.8a11.008,11.008,0,0,1-4.979,8.619Z" transform="translate(-774.997 -284.851)" fill="#0cf" style="mix-blend-mode:lighten;isolation:isolate"/><path d="M820.789,383.961l-.369-.632,86.123-49.99a10.2,10.2,0,0,0,4.61-7.987v-3.806a11.018,11.018,0,0,1,4.98-8.619l3.294-1.9.365.63-3.3,1.9a10.212,10.212,0,0,0-4.61,7.987v3.806a11.014,11.014,0,0,1-4.979,8.619Z" transform="translate(-777.455 -286.267)" fill="#0cf" style="mix-blend-mode:lighten;isolation:isolate"/><path d="M817.109,381.841l-.369-.632,86.121-49.99a10.206,10.206,0,0,0,4.613-7.987v-3.8a11.007,11.007,0,0,1,4.977-8.619l3.3-1.9.364.632-3.3,1.9a10.2,10.2,0,0,0-4.61,7.987v3.8a11.013,11.013,0,0,1-4.978,8.619Z" transform="translate(-779.913 -287.684)" fill="#0cf" style="mix-blend-mode:lighten;isolation:isolate"/><path d="M813.427,379.72l-.367-.632L899.181,329.1a10.2,10.2,0,0,0,4.611-7.987v-3.806a11.02,11.02,0,0,1,4.979-8.619l3.3-1.9.365.632-3.3,1.9a10.213,10.213,0,0,0-4.612,7.987v3.806a11.012,11.012,0,0,1-4.977,8.619Z" transform="translate(-782.37 -289.1)" fill="#0cf" style="mix-blend-mode:lighten;isolation:isolate"/><path d="M809.749,377.6l-.369-.632,86.121-49.99a10.2,10.2,0,0,0,4.611-7.987v-3.806a11.013,11.013,0,0,1,4.979-8.619l3.3-1.9.365.632-3.3,1.9a10.21,10.21,0,0,0-4.608,7.987v3.806a11.013,11.013,0,0,1-4.98,8.619Z" transform="translate(-784.828 -290.517)" fill="#0cf" style="mix-blend-mode:lighten;isolation:isolate"/><path d="M806.068,375.478l-.369-.632,86.123-49.99a10.2,10.2,0,0,0,4.612-7.987v-3.8a11.008,11.008,0,0,1,4.978-8.619l3.3-1.9.364.632-3.294,1.9a10.2,10.2,0,0,0-4.612,7.987v3.8a11.011,11.011,0,0,1-4.977,8.619Z" transform="translate(-787.286 -291.932)" fill="#0cf" style="mix-blend-mode:lighten;isolation:isolate"/><path d="M802.387,373.357l-.367-.63,86.12-49.99a10.206,10.206,0,0,0,4.613-7.987v-3.806a11.016,11.016,0,0,1,4.977-8.619l3.3-1.9.365.632-3.3,1.9a10.209,10.209,0,0,0-4.61,7.987v3.806a11.016,11.016,0,0,1-4.979,8.619Z" transform="translate(-789.743 -293.349)" fill="#0cf" style="mix-blend-mode:lighten;isolation:isolate"/><path d="M798.708,371.237l-.369-.632,86.123-49.988a10.2,10.2,0,0,0,4.61-7.987v-3.806a11.01,11.01,0,0,1,4.98-8.618l3.294-1.9.365.632-3.3,1.9a10.209,10.209,0,0,0-4.61,7.987v3.806a11.011,11.011,0,0,1-4.979,8.619Z" transform="translate(-792.201 -294.765)" fill="#0cf" style="mix-blend-mode:lighten;isolation:isolate"/><path d="M795.028,369.115l-.369-.632L880.782,318.5a10.211,10.211,0,0,0,4.612-7.987V306.7a11.017,11.017,0,0,1,4.977-8.619l3.3-1.9.364.632-3.3,1.9a10.21,10.21,0,0,0-4.61,7.987v3.808a11.021,11.021,0,0,1-4.977,8.619Z" transform="translate(-794.659 -296.181)" fill="#0cf" style="mix-blend-mode:lighten;isolation:isolate"/></g></g></g><g transform="translate(1077.67 508.076)"><g transform="translate(0 50.721)" opacity="0.1"><path d="M973.158,429.712l-18.585-10.73v21.459l18.585,10.73,18.585-10.73V418.983Z" transform="translate(-954.573 -408.253)" fill="#0cf"/><path d="M973.158,451.172l-18.585-10.73V418.983l18.585,10.73Z" transform="translate(-954.573 -408.253)" fill="#0cf"/><path d="M984.3,440.442l-18.585,10.73V429.712l18.585-10.73Z" transform="translate(-947.132 -408.253)" fill="#33c1ff"/><path d="M973.158,434.009l-18.585-10.73,18.584-10.73,18.585,10.73Z" transform="translate(-954.573 -412.549)" fill="#0cf"/><path d="M973.158,429.712l-18.585-10.73v.931l18.585,10.73,18.584-10.73v-.931Z" transform="translate(-954.573 -408.253)" fill="#fff"/></g><path d="M973.158,426.209l-18.585-10.73,18.584-10.73,18.585,10.73Z" transform="translate(-954.573 -367.037)" fill="#03002d" opacity="0.2"/><path d="M973.158,399.3l-18.585-10.73V410.03l18.585,10.73,18.585-10.73V388.571Z" transform="translate(-954.573 -377.841)" fill="#0cf"/><path d="M973.158,420.76l-18.585-10.73V388.571l18.585,10.73Z" transform="translate(-954.573 -377.841)" fill="#0cf"/><path d="M984.3,410.03l-18.585,10.73V399.3l18.585-10.73Z" transform="translate(-947.132 -377.841)" fill="#33c1ff"/><path d="M973.158,403.6l-18.585-10.73,18.584-10.73,18.585,10.73Z" transform="translate(-954.573 -382.138)" fill="#0cf"/><path d="M973.158,399.3l-18.585-10.73v.931l18.585,10.73,18.584-10.73v-.931Z" transform="translate(-954.573 -377.841)" fill="#fff"/></g><g transform="translate(804.836 506.453)"><g transform="translate(0 50.721)" opacity="0.1"><path d="M809.571,428.74l-18.585-10.73v21.459l18.585,10.73,18.585-10.73V418.009Z" transform="translate(-790.987 -407.28)" fill="#0cf"/><path d="M809.571,450.2l-18.585-10.73V418.009l18.585,10.73Z" transform="translate(-790.987 -407.28)" fill="#0cf"/><path d="M820.715,439.469,802.13,450.2V428.739l18.585-10.73Z" transform="translate(-783.545 -407.28)" fill="#33c1ff"/><path d="M809.571,433.036l-18.585-10.73,18.584-10.729,18.585,10.73Z" transform="translate(-790.987 -411.576)" fill="#0cf"/><path d="M809.571,428.74l-18.585-10.73v.931l18.585,10.73,18.584-10.73v-.931Z" transform="translate(-790.987 -407.28)" fill="#fff"/></g><path d="M809.571,425.236l-18.585-10.73,18.584-10.729,18.585,10.73Z" transform="translate(-790.987 -366.064)" fill="#03002d" opacity="0.2"/><path d="M809.571,398.328,790.987,387.6v21.459l18.585,10.73,18.585-10.73V387.6Z" transform="translate(-790.987 -376.868)" fill="#0cf"/><path d="M809.571,419.787l-18.585-10.73V387.6l18.585,10.73Z" transform="translate(-790.987 -376.868)" fill="#0cf"/><path d="M820.715,409.057l-18.585,10.73V398.328l18.585-10.73Z" transform="translate(-783.545 -376.868)" fill="#33c1ff"/><path d="M809.571,402.624l-18.585-10.73,18.584-10.73,18.585,10.73Z" transform="translate(-790.987 -381.165)" fill="#0cf"/><path d="M809.571,398.328,790.987,387.6v.931l18.585,10.73,18.584-10.73V387.6Z" transform="translate(-790.987 -376.868)" fill="#fff"/></g><g transform="translate(770.248 302.328)"><g transform="translate(0 50.721)" opacity="0.1"><path d="M788.833,306.349l-18.585-10.73v21.459l18.585,10.73,18.585-10.73V295.619Z" transform="translate(-770.248 -284.889)" fill="#0cf"/><path d="M788.833,327.808l-18.585-10.73V295.619l18.585,10.73Z" transform="translate(-770.248 -284.889)" fill="#0cf"/><path d="M799.976,317.078l-18.585,10.73V306.349l18.585-10.73Z" transform="translate(-762.807 -284.889)" fill="#33c1ff"/><path d="M788.833,310.645l-18.585-10.73,18.584-10.73,18.585,10.73Z" transform="translate(-770.248 -289.186)" fill="#0cf"/><path d="M788.833,306.349l-18.585-10.73v.931l18.585,10.73,18.584-10.73v-.931Z" transform="translate(-770.248 -284.889)" fill="#fff"/></g><path d="M788.833,302.846l-18.585-10.73,18.584-10.73,18.585,10.73Z" transform="translate(-770.248 -243.674)" fill="#03002d" opacity="0.2"/><path d="M788.833,275.938l-18.585-10.73v21.459l18.585,10.73,18.585-10.73V265.208Z" transform="translate(-770.248 -254.478)" fill="#0cf"/><path d="M788.833,297.4l-18.585-10.73V265.208l18.585,10.73Z" transform="translate(-770.248 -254.478)" fill="#0cf"/><path d="M799.976,286.667,781.391,297.4V275.938l18.585-10.73Z" transform="translate(-762.807 -254.478)" fill="#33c1ff"/><path d="M788.833,280.234,770.248,269.5l18.584-10.729,18.585,10.73Z" transform="translate(-770.248 -258.774)" fill="#0cf"/><path d="M788.833,275.938l-18.585-10.73v.931l18.585,10.73,18.584-10.73v-.931Z" transform="translate(-770.248 -254.478)" fill="#fff"/></g><g transform="translate(889.98 213.554)"><path d="M991.289,381.684,863.3,307.791c-3.306-1.908-2.892-5.244.927-7.448l74.663-43.106c3.819-2.2,9.595-2.445,12.9-.535l127.987,73.893c3.306,1.91,2.892,5.244-.927,7.448l-74.665,43.108C1000.372,383.355,994.6,383.594,991.289,381.684Z" transform="translate(-829.327 -172.247)" fill="#24126a" opacity="0.4"/><path d="M1126.465,305.091l-2.133-.279a8,8,0,0,0-.74-.48L958.831,209.206c-4.256-2.457-11.693-2.15-16.608.689L846.1,265.388a9.923,9.923,0,0,0-2.937,2.46l-1.129-.332v3.324h.008c.012,1.551.947,3.03,2.865,4.138L1009.672,370.1c4.256,2.458,11.693,2.15,16.608-.689L1122.4,313.92c2.747-1.586,4.123-3.626,4.061-5.545h.005Z" transform="translate(-842.037 -204.212)" fill="#9ff6ff"/><path d="M1009.673,368.1,844.912,272.978c-4.258-2.458-3.724-6.751,1.193-9.59L942.223,207.9c4.915-2.839,12.352-3.146,16.608-.689l164.761,95.126c4.258,2.457,3.724,6.75-1.193,9.588l-96.118,55.493C1021.366,370.252,1013.929,370.561,1009.673,368.1Z" transform="translate(-842.037 -205.547)" fill="#0cf"/><path d="M1009.673,368.1,844.912,272.978c-4.258-2.458-3.724-6.751,1.193-9.59L942.223,207.9c4.915-2.839,12.352-3.146,16.608-.689l164.761,95.126c4.258,2.457,3.724,6.75-1.193,9.588l-96.118,55.493C1021.366,370.252,1013.929,370.561,1009.673,368.1Z" transform="translate(-842.037 -205.547)" fill="url(#k)"/><path d="M1030.635,345.222,850.457,241.2l19.126-11.042L1049.76,334.179Z" transform="translate(-836.414 -189.115)" fill="#453c9e" opacity="0.7"/></g><path d="M978.509,287.25l-54.248-31.32,13.238-7.643,54.247,31.32Z" transform="translate(102.854 36.549)" fill="#fff" opacity="0.7"/><g transform="translate(826.599 193.558)"><path d="M838.882,269.532c18.042-4.513,36.814-22.667,41.927-40.55,2.56-8.958,1.208-16.146-3.047-20.524v0L873.3,203.89l.243,1.591c-4.158-1.958-9.658-2.327-16.141-.705-18.041,4.513-36.812,22.667-41.926,40.55-1.756,6.144-1.673,11.456-.073,15.6l-1.463.24,4.535,4.635.057.057.183.188v-.013C822.971,270.251,830.009,271.752,838.882,269.532Z" transform="translate(-797.423 -186.747)" fill="#9ff6ff"/><ellipse cx="41.243" cy="23.812" rx="41.243" ry="23.812" transform="matrix(0.719, -0.695, 0.695, 0.719, 0, 57.346)" fill="#0cf"/><path d="M828.871,262.986c-4.752,0-8.7-1.463-11.461-4.316-4.019-4.158-5.005-10.742-2.775-18.543,4.555-15.921,21.326-32.144,37.391-36.162,7.874-1.971,14.418-.764,18.438,3.392s5.005,10.741,2.775,18.541c-4.553,15.923-21.325,32.146-37.391,36.163A28.894,28.894,0,0,1,828.871,262.986ZM859,203.875a28.136,28.136,0,0,0-6.773.9c-15.8,3.954-32.311,19.919-36.79,35.583-2.146,7.5-1.233,13.8,2.572,17.734s10.069,5.055,17.637,3.164c15.806-3.954,32.312-19.915,36.79-35.581,2.145-7.505,1.233-13.8-2.573-17.734C867.268,205.251,863.523,203.875,859,203.875Z" transform="translate(-797.736 -187.224)" fill="#1d58ce"/></g><g transform="translate(815.703 338.505)"><g transform="translate(68.738 65.507)" opacity="0.1"><path d="M900.386,374.238c0-18.6-13.057-41.214-29.164-50.512-8.069-4.66-15.372-5.092-20.651-2.025v0l-5.514,3.226,1.6.15c-2.907,3.559-4.6,8.8-4.6,15.487,0,18.6,13.057,41.212,29.163,50.512,5.534,3.2,10.709,4.4,15.117,3.856l-.123,1.479,5.6-3.276.07-.042.227-.132-.013,0C897.224,389.849,900.386,383.384,900.386,374.238Z" transform="translate(-836.483 -319.742)" fill="#9ff6ff"/><path d="M897.043,376.194c0,18.6-13.057,26.135-29.163,16.837s-29.164-31.915-29.164-50.513,13.057-26.136,29.164-16.837S897.043,357.6,897.043,376.194Z" transform="translate(-838.716 -318.437)" fill="#0cf"/></g><path d="M888.825,407.056c-20.117,0-40.238-4.421-55.553-13.264-14.9-8.6-23.1-20.049-23.1-32.242s8.2-23.643,23.1-32.242c30.633-17.684,80.474-17.684,111.109,0,14.894,8.6,23.1,20.051,23.1,32.242s-8.2,23.643-23.094,32.241h0C929.063,402.635,908.946,407.056,888.825,407.056Zm0-90.441c-20.016,0-40.026,4.4-55.263,13.194-14.707,8.491-22.806,19.764-22.806,31.74s8.1,23.251,22.807,31.74c30.478,17.6,80.062,17.6,110.53,0h0C958.8,384.8,966.9,373.53,966.9,361.552s-8.1-23.249-22.809-31.74C928.851,321.015,908.836,316.615,888.822,316.615Z" transform="translate(-789.039 -256.705)" fill="#0cf" opacity="0.4"/><path d="M897.289,424.137c-25.534,0-51.062-5.609-70.5-16.833C807.9,396.4,797.5,381.884,797.5,366.432s10.4-29.966,29.285-40.868c38.87-22.442,102.124-22.444,141,0,18.885,10.9,29.285,25.419,29.285,40.87s-10.4,29.966-29.284,40.87C948.353,418.526,922.819,424.137,897.289,424.137ZM897.284,309.3c-25.428,0-50.852,5.587-70.209,16.763-18.7,10.8-29,25.131-29,40.366s10.3,29.574,29,40.37c38.715,22.354,101.709,22.354,140.421,0l.145.252-.145-.252c18.7-10.794,29-25.132,29-40.368s-10.3-29.572-29-40.368C948.138,314.891,922.71,309.3,897.284,309.3Z" transform="translate(-797.502 -261.589)" fill="#0cf" opacity="0.2"/><path d="M882.161,393.6c-15.858,0-31.712-3.486-43.784-10.456-11.75-6.783-18.221-15.821-18.221-25.446s6.471-18.66,18.219-25.443c24.142-13.935,63.422-13.935,87.564,0,11.75,6.785,18.221,15.823,18.221,25.446s-6.471,18.661-18.219,25.444C913.871,390.116,898.015,393.6,882.161,393.6Zm0-71.226c-15.751,0-31.5,3.461-43.492,10.384-11.563,6.675-17.931,15.532-17.931,24.941s6.368,18.268,17.932,24.944c23.982,13.848,63,13.85,86.984,0,11.563-6.675,17.931-15.532,17.931-24.942s-6.368-18.268-17.932-24.944C913.659,325.837,897.908,322.376,882.157,322.376Z" transform="translate(-782.373 -252.857)" fill="#0cf"/><g transform="translate(54.121)"><g clip-path="url(#l)"><g transform="translate(14.617 65.507)"><path d="M900.386,374.238c0-18.6-13.057-41.214-29.164-50.512-8.069-4.66-15.372-5.092-20.651-2.025v0l-5.514,3.226,1.6.15c-2.907,3.559-4.6,8.8-4.6,15.487,0,18.6,13.057,41.212,29.163,50.512,5.534,3.2,10.709,4.4,15.117,3.856l-.123,1.479,5.6-3.276.07-.042.227-.132-.013,0C897.224,389.849,900.386,383.384,900.386,374.238Z" transform="translate(-836.483 -319.742)" fill="#9ff6ff"/><path d="M897.043,376.194c0,18.6-13.057,26.135-29.163,16.837s-29.164-31.915-29.164-50.513,13.057-26.136,29.164-16.837S897.043,357.6,897.043,376.194Z" transform="translate(-838.716 -318.437)" fill="#0cf"/><path d="M878.616,392.368a24.3,24.3,0,0,1-11.938-3.653c-14.6-8.429-26.474-29-26.474-45.852,0-8.256,2.807-14.422,7.9-17.362s11.838-2.29,18.99,1.838c14.6,8.429,26.472,29,26.472,45.85,0,8.257-2.805,14.425-7.9,17.365A13.923,13.923,0,0,1,878.616,392.368Zm-23.458-67.845a13.108,13.108,0,0,0-6.636,1.7c-4.825,2.787-7.484,8.7-7.484,16.641,0,16.588,11.69,36.834,26.056,45.128,6.88,3.973,13.324,4.628,18.154,1.841s7.484-8.7,7.484-16.643c0-16.588-11.688-36.834-26.055-45.126A23.47,23.47,0,0,0,855.158,324.522Z" transform="translate(-837.722 -317.108)" fill="#1d58ce"/></g></g></g></g><g transform="translate(1124.223 399.956)"><g transform="translate(60.426 58.802)" opacity="0.1"><path d="M1022.616,411.083c0-18.6,13.057-41.214,29.165-50.513,8.067-4.658,15.371-5.09,20.651-2.023v0l5.514,3.226-1.6.15c2.907,3.559,4.6,8.8,4.6,15.487,0,18.6-13.057,41.212-29.163,50.512-5.535,3.2-10.709,4.4-15.119,3.856l.124,1.479-5.6-3.276-.068-.042-.227-.132.012,0C1025.78,426.694,1022.616,420.229,1022.616,411.083Z" transform="translate(-1016.112 -349.883)" fill="#9ff6ff"/><ellipse cx="41.243" cy="23.812" rx="41.243" ry="23.812" transform="translate(0 71.435) rotate(-59.998)" fill="#0cf"/></g><path d="M1073.807,443.9c-20.119,0-40.238-4.421-55.555-13.264-14.894-8.6-23.094-20.049-23.094-32.241s8.2-23.643,23.1-32.242c30.636-17.686,80.477-17.687,111.11,0,14.894,8.6,23.1,20.047,23.1,32.239s-8.2,23.645-23.1,32.244C1114.045,439.48,1093.927,443.9,1073.807,443.9Zm0-90.441c-20.016,0-40.028,4.4-55.265,13.2-14.708,8.491-22.807,19.764-22.807,31.74s8.1,23.248,22.806,31.739c30.473,17.6,80.057,17.6,110.53,0,14.71-8.493,22.809-19.764,22.809-31.742s-8.1-23.248-22.807-31.737C1113.84,357.859,1093.821,353.461,1073.809,353.461Z" transform="translate(-974.023 -293.55)" fill="#0cf" opacity="0.4"/><path d="M1082.27,460.981c-25.533,0-51.062-5.612-70.5-16.832-18.883-10.9-29.285-25.418-29.285-40.868s10.4-29.967,29.287-40.872c38.877-22.444,102.126-22.441,141,0,18.883,10.9,29.285,25.418,29.285,40.868s-10.4,29.967-29.289,40.872C1133.332,455.369,1107.8,460.981,1082.27,460.981Zm0-114.834c-25.429,0-50.852,5.587-70.21,16.765-18.7,10.8-29,25.132-29,40.37s10.3,29.57,29,40.366c38.714,22.351,101.7,22.352,140.417,0,18.7-10.8,29-25.132,29-40.37s-10.3-29.57-29-40.366C1133.129,351.736,1107.7,346.147,1082.273,346.147Z" transform="translate(-982.486 -298.433)" fill="#0cf" opacity="0.2"/><path d="M1067.14,430.445c-15.854,0-31.71-3.482-43.78-10.452-11.748-6.785-18.219-15.821-18.219-25.444s6.471-18.663,18.219-25.446c24.142-13.935,63.424-13.935,87.564,0,11.748,6.783,18.219,15.819,18.219,25.444s-6.471,18.661-18.221,25.446C1098.851,426.963,1082.995,430.445,1067.14,430.445Zm0-71.226c-15.751,0-31.5,3.462-43.492,10.386-11.563,6.676-17.932,15.534-17.932,24.944s6.369,18.268,17.931,24.942c23.98,13.848,63,13.848,86.985,0,11.563-6.676,17.932-15.534,17.932-24.944s-6.369-18.268-17.931-24.942C1098.644,362.682,1082.895,359.219,1067.142,359.219Z" transform="translate(-967.357 -289.702)" fill="#0cf"/><g transform="translate(54.121)"><g clip-path="url(#m)"><g transform="translate(6.305 58.802)"><path d="M1022.616,411.083c0-18.6,13.057-41.214,29.165-50.513,8.067-4.658,15.371-5.09,20.651-2.023v0l5.514,3.226-1.6.15c2.907,3.559,4.6,8.8,4.6,15.487,0,18.6-13.057,41.212-29.163,50.512-5.535,3.2-10.709,4.4-15.119,3.856l.124,1.479-5.6-3.276-.068-.042-.227-.132.012,0C1025.78,426.694,1022.616,420.229,1022.616,411.083Z" transform="translate(-1016.112 -349.883)" fill="#9ff6ff"/><ellipse cx="41.243" cy="23.812" rx="41.243" ry="23.812" transform="translate(0 71.435) rotate(-59.998)" fill="#0cf"/><path d="M1042.4,429.213a13.892,13.892,0,0,1-7.048-1.813c-5.1-2.942-7.9-9.108-7.9-17.364,0-16.855,11.875-37.423,26.471-45.852,7.148-4.129,13.893-4.782,18.99-1.84s7.9,9.108,7.9,17.364c0,16.855-11.876,37.423-26.473,45.852A24.284,24.284,0,0,1,1042.4,429.213Zm23.46-67.847a23.458,23.458,0,0,0-11.521,3.541c-14.366,8.294-26.054,28.54-26.054,45.13,0,7.946,2.658,13.855,7.485,16.642s11.271,2.133,18.152-1.841c14.369-8.3,26.057-28.538,26.057-45.128,0-7.944-2.657-13.855-7.483-16.641A13.091,13.091,0,0,0,1065.858,361.366Z" transform="translate(-1012.885 -347.249)" fill="#1d58ce"/></g></g></g></g><g transform="translate(967.089 235.979)"><g transform="translate(11.973 25.925)"><path d="M906.845,241.325l5.594.007.117,5.852q-4.871.017-9.7-.245a11.847,11.847,0,0,1-4.795-1.411,4.737,4.737,0,0,1-2.533-3.09,63.312,63.312,0,0,1,.222-7.9l5.2.025c0,.123.055.327.067.529.022,1.888.16,3.781.043,5.676a2.331,2.331,0,0,0,1.179,2.368c.972.562,2.558.757,4.812.575Z" transform="translate(-895.45 -234.537)" fill="#89d4dc"/></g><g transform="translate(0 0.051)" style="isolation:isolate"><g transform="translate(0 6.648)"><path d="M898.23,229.627l.062,3.259-10-.025a26.589,26.589,0,0,1,.35-5.571c.792-2.545,4.688-4.365,9.146-4.278,4.034,0,8.077.005,11.952.012l.062,3.406c-.8-.018-1.836-.055-2.887-.062l-8.438-.018c-3.015-.012-4.37.787-4.37,2.552-.02.234-.062.467-.1.849Z" transform="translate(-888.271 -223.009)" fill="#89d4dc"/></g><g transform="translate(37.625 6.761)"><path d="M929.318,226.359c.018-.515.068-1.039.065-1.579s-.08-1.087-.127-1.678c.3-.013.605-.018.912-.025a13.745,13.745,0,0,1,6.75,1.616c1.729,1,2.805,2.38,2.814,3.9.04,1.483.048,2.97.067,4.488-.328.018-.55.037-.8.043q-9.362-.018-18.745-.05l-.424-.012a13.46,13.46,0,0,1-6.191-1.6c-1.858-1.072-2.95-2.582-2.8-4.213l5.689.062a2.417,2.417,0,0,0,1.147,1.838,7.909,7.909,0,0,0,3.739.6c3.756.013,7.5.018,11.271.025.394-.007.8-.018,1.179-.018.28-1.278.038-2.13-.889-2.665A8.444,8.444,0,0,0,929.318,226.359Z" transform="translate(-910.83 -223.077)" fill="#89d4dc"/></g><g transform="translate(11.546)"><path d="M895.231,224.77c-.45-2.9,3.217-5.46,8.216-5.724,3.035-.05,6.081-.018,9.106.11-.018.394-.068.9-.065,1.421.018,3.356.185,6.713.035,10.07l-.052.289c-.482,2.909-4.95,5.023-9.962,4.728l0-3.234c1.753.1,3.416-.48,4.046-1.439a.785.785,0,0,0,.222-.387c-.037-2.742-.073-5.472-.12-8.207-3.623-.387-5.317.325-5.826,2.4Z" transform="translate(-895.194 -219.023)" fill="#89d4dc"/></g><g transform="translate(11.794 10.917)"><path d="M895.342,225.569l5.212.068.119,9.812-5.212-.006Z" transform="translate(-895.342 -225.569)" fill="#89d4dc"/></g><g transform="translate(49.479 17.673)"><path d="M923.181,229.62l.119,9.824h-5.2l-.161-9.824Z" transform="translate(-917.937 -229.62)" fill="#89d4dc"/></g><g transform="translate(44.845 21.964)"><path d="M926.915,235.494l.077-3.3h9.85a39.662,39.662,0,0,1,.123,4.912c-.24,2.62-3.828,4.717-8.347,4.875-4.383.13-8.809-.06-13.459-.122.005-.867.032-1.82.048-2.755.01-.117.03-.227.062-.417l7.992.03c1.263-.007,2.537.007,3.8,0a5.537,5.537,0,0,0,1,0c2.058-.16,3.5-1.254,3.2-2.44a7.066,7.066,0,0,1,.1-.886Z" transform="translate(-915.159 -232.193)" fill="#89d4dc"/></g><g transform="translate(0.28 21.633)"><path d="M898.575,238.819l.045.344c.017.941.043,1.888.07,2.9a14.075,14.075,0,0,1-7.432-1.608,5.161,5.161,0,0,1-2.765-3.371c-.137-1.673.023-3.357.047-5.085,2.654.012,5.434.012,8.194.025,3.894.018,7.779-.032,11.643.067l.139.007a13.164,13.164,0,0,1,5.959,1.573c1.863,1.076,2.939,2.593,2.745,4.225l-5.552-.007a4.8,4.8,0,0,0-.7-1.419,2.519,2.519,0,0,0-.617-.489,4.945,4.945,0,0,0-2.413-.575c-4.533-.018-9.054-.007-13.586-.012a1.887,1.887,0,0,0,.8,2.587A8.89,8.89,0,0,0,898.575,238.819Z" transform="translate(-888.438 -231.994)" fill="#89d4dc"/></g></g><g transform="translate(37.773 21.793)"><path d="M928.144,243.016c.415,2.177-1.589,4.266-5,5.2a14.7,14.7,0,0,1-3.479.565c-2.812.055-5.626-.025-8.534-.05a2.454,2.454,0,0,1-.077-.5c-.052-3.462-.113-6.916-.122-10.366l-.012-.314c-.038-3.025,4.181-5.491,9.393-5.5l.52.018.038,3.112a22.024,22.024,0,0,0-3.094.934,1.679,1.679,0,0,0-1,1.223c-.048,2.694.04,5.392.087,8.079,3.961.24,5.169-.277,5.772-2.4Z" transform="translate(-910.919 -232.06)" fill="#89d4dc"/></g><g transform="translate(19.064 28.624)"><path d="M899.7,239.168l0-3.013,17.205.043.028,3.019Z" transform="translate(-899.701 -236.156)" fill="#89d4dc"/></g><g transform="translate(30.281)" style="isolation:isolate"><g transform="translate(0 6.922)"><path d="M923.738,223.186l.038,2.963-17.333-.043-.017-2.963Z" transform="translate(-906.427 -223.143)" fill="#89d4dc"/></g><g transform="translate(7.475)"><path d="M916.578,224.864H911l-.087-5.871c2.887.048,6.039-.043,9.14.178a12.447,12.447,0,0,1,5.164,1.486,4.776,4.776,0,0,1,2.655,3.394c.205,2.522.06,5.048.063,7.562l-5.657-.018-.047-4.463c-.005-.762-.018-1.518-.033-2.275a1.227,1.227,0,0,0,.007-.522,2.088,2.088,0,0,0-1.1-1.321,5.774,5.774,0,0,0-3.146-.64c-.445,0-.891-.048-1.858-.105.142.547.282.959.359,1.384S916.545,224.5,916.578,224.864Z" transform="translate(-910.909 -218.993)" fill="#89d4dc"/></g></g></g></g></svg>